<svg xmlns="http://www.w3.org/2000/svg" height="24" viewBox="0 -960 960 960" width="24"><path d="M204.038-249.695v46.464-553.538V-249.695Zm12.309 102.424q-28.257 0-48.263-20.005-20.006-20.006-20.006-48.263v-528.922q0-28.257 20.006-48.263 20.006-20.005 48.263-20.005h528.114q28.257 0 48.263 20.005 20.005 20.006 20.005 48.263v111.27h-55.96v-111.27q0-5.385-3.462-8.846-3.461-3.462-8.846-3.462H216.347q-5.385 0-8.847 3.462-3.462 3.461-3.462 8.846v528.922q0 5.385 3.462 8.846 3.462 3.462 8.847 3.462h528.114q5.385 0 8.846-3.462 3.462-3.461 3.462-8.846v-111.27h55.96v111.27q0 28.257-20.005 48.263-20.006 20.005-48.263 20.005H216.347Zm317.54-158.384q-29.078 0-49.463-20.465-20.384-20.464-20.384-49.365v-209.04q0-29.051 20.46-49.435 20.461-20.385 49.356-20.385h248.218q29.079 0 49.463 20.465 20.385 20.464 20.385 49.365v209.04q0 29.051-20.461 49.435-20.46 20.385-49.355 20.385H533.887Zm249.766-55.96q5.385 0 8.847-3.462 3.462-3.462 3.462-8.847v-212.152q0-5.385-3.462-8.847-3.462-3.462-8.847-3.462H532.309q-5.385 0-8.847 3.462-3.462 3.462-3.462 8.847v212.152q0 5.385 3.462 8.847 3.462 3.462 8.847 3.462h251.344Zm-145.327-59.193q24.751 0 42.001-17.191 17.25-17.191 17.25-41.942t-17.191-42.001q-17.191-17.25-41.943-17.25-24.751 0-42.001 17.191-17.25 17.191-17.25 41.942t17.191 42.001q17.192 17.25 41.943 17.25Z"/></svg>