<svg xmlns="http://www.w3.org/2000/svg" height="24" viewBox="0 -960 960 960" width="24"><path d="M238.079-308.076v-249.695q0-11.442 8.225-19.663t19.865-8.221q11.447 0 19.659 8.221 8.211 8.221 8.211 19.663v249.695q0 11.634-8.225 19.855T266.142-280q-11.64 0-19.852-8.221-8.211-8.221-8.211-19.855Zm214.345 0v-249.695q0-11.442 8.225-19.663 8.224-8.221 19.864-8.221 11.448 0 19.66 8.221 8.211 8.221 8.211 19.663v249.695q0 11.634-8.225 19.855T480.487-280q-11.641 0-19.852-8.221t-8.211-19.855ZM148.54-148.078q-11.634 0-19.855-8.225t-8.221-19.865q0-11.448 8.221-19.659 8.221-8.211 19.855-8.211h663.112q11.442 0 19.663 8.224 8.221 8.225 8.221 19.673 0 11.64-8.221 19.851-8.221 8.212-19.663 8.212H148.54Zm517.421-159.998v-249.695q0-11.442 8.225-19.663t19.865-8.221q11.447 0 19.659 8.221 8.211 8.221 8.211 19.663v249.695q0 11.634-8.225 19.855T694.024-280q-11.64 0-19.852-8.221-8.211-8.221-8.211-19.855Zm147.538-353.541H143.655q-9.865 0-16.528-6.648-6.663-6.649-6.663-16.493v-14.508q0-7.003 3.509-12.255 3.51-5.252 9.606-8.286l316.767-154.615q13.979-7.038 29.605-7.038 15.626 0 29.895 7.038l315.152 153.615q6.731 3.653 10.635 9.711 3.903 6.057 3.903 13.507v10.033q0 10.978-7.48 18.459-7.481 7.48-18.557 7.48Zm-559.269-55.96h451.54-451.54Zm0 0h451.54L485.385-823.654q-2.692-1.154-5.385-1.154-2.693 0-5.385 1.154L254.23-717.577Z"/></svg>