<svg xmlns="http://www.w3.org/2000/svg" height="24" viewBox="0 -960 960 960" width="24"><path d="M245.498-268.807q51.772-37.346 109.618-58.462Q412.962-348.384 480-348.384q67.038 0 124.884 21.115 57.846 21.116 109.846 58.462 38.424-42.115 59.828-95.525 21.404-53.41 21.404-115.674 0-131.686-92.135-223.821Q611.692-795.962 480-795.962t-223.827 92.135q-92.135 92.135-92.135 223.821 0 62.264 21.404 115.674 21.404 53.41 60.056 95.525Zm234.624-182.809q-54.276 0-91.391-36.993t-37.115-91.269q0-54.276 36.993-91.391t91.269-37.115q54.276 0 91.391 36.993t37.115 91.269q0 54.276-36.993 91.391t-91.269 37.115ZM480-108.078q-77.252 0-145.238-29.225-67.985-29.224-118.123-79.461-50.138-50.237-79.349-118.151-29.212-67.914-29.212-145.181 0-77.349 29.225-145.238 29.224-67.889 79.461-118.027 50.237-50.138 118.151-79.349 67.914-29.212 145.181-29.212 77.349 0 145.238 29.225 67.889 29.224 118.027 79.461 50.138 50.237 79.349 118.038Q851.922-557.397 851.922-480q0 77.252-29.225 145.238-29.224 67.985-79.461 118.123-50.237 50.138-118.038 79.349Q557.397-108.078 480-108.078Zm-.012-55.96q53.358 0 102.57-17.02 49.212-17.019 89.52-48.327-40.308-29.654-88.354-46.346-48.047-16.693-103.652-16.693-55.606 0-104.262 16.154-48.657 16.154-87.888 46.885 40.308 31.308 89.508 48.327 49.201 17.02 102.558 17.02ZM480-507.576q30.346 0 51.385-21.039 21.039-21.039 21.039-51.385 0-30.346-21.039-51.385-21.039-21.039-51.385-21.039-30.346 0-51.385 21.039-21.039 21.039-21.039 51.385 0 30.346 21.039 51.385 21.039 21.039 51.385 21.039ZM480-580Zm0 351.769Z"/></svg>