<svg xmlns="http://www.w3.org/2000/svg" height="24" viewBox="0 -960 960 960" width="24"><path d="M451.616-729.193h-90.308q-11.635 0-19.856-8.225-8.221-8.225-8.221-19.769 0-11.544 8.221-19.755 8.221-8.211 19.856-8.211h90.308v-90.501q0-11.413 8.225-19.648 8.225-8.236 19.769-8.236 11.544 0 19.755 8.236 8.211 8.235 8.211 19.648v90.501h90.501q11.413 0 19.648 8.239 8.236 8.239 8.236 19.658 0 11.64-8.236 19.852-8.235 8.211-19.648 8.211h-90.501v90.308q0 11.635-8.239 19.856-8.239 8.221-19.658 8.221-11.64 0-19.852-8.221-8.211-8.221-8.211-19.856v-90.308ZM288.61-105.77q-28.141 0-47.875-19.702t-19.734-47.842q0-28.141 19.702-47.875 19.701-19.734 47.842-19.734t47.875 19.702q19.734 19.701 19.734 47.842t-19.702 47.875Q316.75-105.77 288.61-105.77Zm381.23 0q-28.141 0-47.875-19.702t-19.734-47.842q0-28.141 19.702-47.875 19.701-19.734 47.842-19.734t47.875 19.702q19.734 19.701 19.734 47.842t-19.702 47.875Q697.98-105.77 669.84-105.77ZM142.616-808.385H96.154q-11.634 0-19.855-8.225-8.22-8.225-8.22-19.769 0-11.544 8.22-19.755 8.221-8.212 19.855-8.212h60.594q10.098 0 18.06 5.245 7.961 5.244 12.435 14.176l155.449 327.233H611.33q3.462 0 6.154-1.731 2.693-1.731 4.616-4.808l137.515-246.73q3.654-6.5 10.017-10.346 6.363-3.846 14.14-3.846 16.261 0 24.186 13.882 7.925 13.883.118 27.578L672.23-496.732q-9.039 16.808-25.118 26.308t-34.497 9.5h-287L278.5-374.693q-3.077 4.615-.193 10 2.885 5.386 8.655 5.386H709.5q11.413 0 19.648 8.239 8.236 8.239 8.236 19.658 0 11.64-8.236 19.851-8.235 8.212-19.648 8.212H289.389q-38.729 0-58.577-32.731-19.849-32.73-1.349-66.615l57.077-101.828-143.924-303.864Z"/></svg>