<svg xmlns="http://www.w3.org/2000/svg" height="24" viewBox="0 -960 960 960" width="24"><path d="M215.448-147.271q-28.346 0-48.262-19.915-19.915-19.916-19.915-48.262v-529.104q0-28.346 19.915-48.262 19.916-19.915 48.353-19.915h179.616q2.846-33.193 26.839-56.193t57.903-23q33.91 0 58.006 23 24.096 23 26.942 56.193h179.616q28.437 0 48.353 19.915 19.915 19.916 19.915 48.262v529.104q0 28.346-19.915 48.262-19.916 19.915-48.262 19.915H215.448ZM480-781.807q13 0 21.5-8.5t8.5-21.5q0-12.808-8.5-21.404t-21.5-8.596q-13 0-21.5 8.596t-8.5 21.404q0 13 8.5 21.5t21.5 8.5ZM203.231-239.922q53.457-52.25 124.24-82.317 70.782-30.068 152.501-30.068 81.72 0 152.522 30.068 70.802 30.067 124.275 82.317v-504.539q0-4.615-3.846-8.462-3.847-3.846-8.462-3.846H215.539q-4.615 0-8.462 3.846-3.846 3.847-3.846 8.462v504.539Zm276.88-194.501q52.735 0 89.696-37.072 36.962-37.073 36.962-89.808 0-52.734-37.073-89.696-37.072-36.961-89.807-36.961t-89.696 37.072q-36.962 37.073-36.962 89.807 0 52.735 37.073 89.697 37.072 36.961 89.807 36.961ZM256.883-203.231h446.234v-8.572q-47.385-42.697-104.4-63.621Q541.701-296.347 480-296.347q-61 0-117.77 20.731-56.77 20.731-105.347 63.043v9.342Zm223.058-287.152q-29.207 0-49.978-20.83t-20.771-50.037q0-29.208 20.829-49.979Q450.851-632 480.059-632q29.207 0 49.978 20.83t20.771 50.037q0 29.208-20.829 49.979-20.83 20.771-50.038 20.771Zm.059-7.963Z"/></svg>