<svg xmlns="http://www.w3.org/2000/svg" height="24" viewBox="0 -960 960 960" width="24"><path d="M252.539-156.579q-31.905 0-63.605-13.557-31.701-13.557-52.969-36.98 22.115-7.654 41.364-28.519 19.25-20.866 19.25-55.234 0-39.846 27.624-67.93 27.625-28.085 67.528-28.085 39.904 0 67.528 28.042 27.625 28.041 27.625 67.825 0 56.227-39.106 95.333-39.105 39.105-95.239 39.105Zm-.066-55.96q32.566 0 55.508-22.942 22.943-22.943 22.943-55.613 0-16.83-11.056-28.33-11.055-11.5-28.137-11.5-17.081 0-28.137 11.5-11.055 11.5-11.055 28.5 0 23.073-5.75 41.883-5.75 18.81-16.673 34.64 5 1.862 11.211 1.862h11.146Zm206.719-160.692-85.191-84.384 336.111-336.152q10.849-11 27.124-11.5 16.274-.5 28.11 11.5l29.191 29.998q12 11.842 12 27.63 0 15.789-12 27.63L459.192-373.231Zm-167.461 82.307Z"/></svg>