<svg xmlns="http://www.w3.org/2000/svg" height="24" viewBox="0 -960 960 960" width="24"><path d="M176.263-148.078q-28.353 0-48.269-19.916-19.916-19.916-19.916-48.353V-631.73q0-28.437 19.916-48.353t48.353-19.916h168.501v-63.697q0-28.455 19.915-48.34 19.916-19.884 48.273-19.884h133.928q28.357 0 48.273 19.915 19.915 19.916 19.915 48.353v63.653h168.501q28.437 0 48.353 19.916t19.916 48.353v415.383q0 28.437-19.916 48.353t-48.269 19.916H176.263Zm224.545-551.921h158.384v-63.653q0-4.615-3.846-8.462-3.847-3.846-8.462-3.846H413.116q-4.615 0-8.462 3.846-3.846 3.847-3.846 8.462v63.653Zm395.154 327.575h-220.31v33.346q0 14.346-9.942 24.288t-24.288 9.942H418.578q-14.346 0-24.192-9.942t-9.846-24.288v-33.346H164.038v156.077q0 4.616 3.847 8.462 3.846 3.847 8.462 3.847h607.306q4.616 0 8.462-3.847 3.847-3.846 3.847-8.462v-156.077ZM440.5-360.808h79.192V-440H440.5v79.192Zm-276.462-67.576H384.54v-33.634q0-14.084 9.846-24.013 9.846-9.929 24.192-9.929h122.844q14.346 0 24.288 9.929t9.942 24.013v33.634h220.31V-631.73q0-4.616-3.847-8.462-3.846-3.846-8.462-3.846H176.347q-4.616 0-8.462 3.846-3.847 3.846-3.847 8.462v203.346ZM480-400.5Z"/></svg>