<svg xmlns="http://www.w3.org/2000/svg" height="24" viewBox="0 -960 960 960" width="24"><path d="M262.423-187.271q-80.584 0-137.464-55.871-56.88-55.871-56.88-136.627 0-71.615 46.595-127.384 46.597-55.769 117.904-65.115 17.855-88.036 87.507-144.249Q389.736-772.729 480-772.729q105.964 0 179.751 74.115 73.786 74.115 73.786 179.422v22.732h12.309q61.615 2.692 103.845 47.787 42.231 45.096 42.231 106.558 0 64.483-45.125 109.664-45.124 45.18-110.028 45.18H262.423Zm0-55.96H736.8q41.508 0 70.335-28.687 28.827-28.688 28.827-70.229t-28.708-70.132q-28.707-28.592-70.283-28.592h-59.394v-78.252q0-82.017-57.782-139.831-57.781-57.815-139.762-57.815-81.98 0-139.767 57.791-57.787 57.791-57.787 139.786h-19.928q-57.628 0-98.07 40.192-40.443 40.192-40.443 97.788 0 57.597 40.443 97.789 40.442 40.192 97.942 40.192ZM480-480Z"/></svg>