<svg xmlns="http://www.w3.org/2000/svg" height="24" viewBox="0 -960 960 960" width="24"><path d="m180.384-479.385 161.487 161.488q7.821 7.82 8.167 19.282.346 11.461-8.154 20.057-8.5 8.596-19.615 8.596-11.115 0-19.615-8.692L124.808-456.308q-5.115-5.177-7.673-11.23-2.557-6.053-2.557-12.866t2.557-12.866q2.558-6.053 7.673-11.23L301.8-681.491q8.469-8.47 20.027-8.566 11.557-.096 20.365 8.519 8.615 8.807 8.615 20.269 0 11.461-8.615 20.076L180.384-479.385Zm599.232-1.23L618.129-642.103q-7.821-7.82-8.167-19.282-.346-11.461 8.154-20.057 8.5-8.596 19.615-8.596 11.115 0 19.807 8.5L835.179-503.71q5.128 5.133 7.686 11.195 2.557 6.061 2.557 12.884t-2.557 12.885q-2.558 6.061-7.673 11.246L658.346-278.654q-8.615 8.615-19.865 8.403-11.25-.211-19.865-9.019-8.808-8.615-8.808-20.076t8.822-20.283l160.986-160.986Z"/></svg>