<svg xmlns="http://www.w3.org/2000/svg" height="24" viewBox="0 -960 960 960" width="24"><path d="M719.886-178.885 533.885-365.078l61.614-61.614 186 186.206q12.769 12.844 12.769 30.8 0 17.957-12.769 30.801-12.846 12.769-30.806 12.769-17.961 0-30.807-12.769Zm-541.001 0q-12.769-12.847-12.769-30.807t12.769-30.807l239.886-239.886-93.387-92.194-.307.308q-9.846 9.846-23.808 9.846-13.961 0-23.615-9.846l-20.038-20.731v83.961q0 11.686-10.635 15.689-10.634 4.004-18.673-4.035l-99.615-99.807q-8.23-8.038-4.187-18.673 4.043-10.634 15.841-10.634h83.769l-19.654-19.346q-10.538-10.346-10.538-24.21t10.538-24.367l85.691-85.69q16.098-16.024 35.279-23.916 19.182-7.892 39.989-7.892 16.923 0 31.365 4.846t28.25 15.308q6.231 4.423 6.981 12t-5.03 13.356l-61.989 61.989 22.5 22.308q9.654 9.846 9.654 23.807 0 13.962-9.654 23.615l-.5.5 93.387 92.194 92.116-92.182q-6.693-11.78-9.52-24.645-2.827-12.866-2.827-27.366 0-52.743 36.577-89.39 36.576-36.647 89.496-36.647 6.403 0 11.857.403 5.454.404 11.684 1.827 7.462 2.636 9.519 10.41 2.058 7.774-3.788 13.667l-61.153 61.153q-5.116 5.198-5.116 12.039 0 6.84 5.116 12.038l46.346 46.346q5.198 5.116 12.038 5.116 6.841 0 12.039-5.116l61.153-61.153q5.846-5.846 13.641-3.846 7.794 2 10.436 9.577 1.423 6.23 1.827 11.684.403 5.454.403 11.857 0 52.92-36.647 89.496-36.647 36.577-89.39 36.577-14.5 0-27.366-2.519-12.865-2.52-24.712-9.828L240.499-178.885q-12.847 12.769-30.807 12.769t-30.807-12.769Z"/></svg>