<svg xmlns="http://www.w3.org/2000/svg" height="24" viewBox="0 -960 960 960" width="24"><path d="m494.769-492.499-65.152-64.954q-8.387-8.277-19.791-8.469-11.403-.193-20.019 8.422-8.692 8.693-8.692 19.961 0 11.269 8.579 19.656l81.075 81.074q10.164 10.539 23.926 10.539 13.762 0 24.266-10.539l163.308-163.307q8.46-8.461 8.499-19.711.038-11.25-8.222-20.057-9.047-8.615-20.258-8.769-11.211-.154-20.034 8.668L494.769-492.499Zm-176.5 232.498q-28.437 0-48.353-19.916-19.915-19.916-19.915-48.353v-455.383q0-28.437 19.915-48.353 19.916-19.916 48.353-19.916h455.383q28.438 0 48.353 19.916 19.916 19.916 19.916 48.353v455.383q0 28.437-19.916 48.353-19.915 19.916-48.353 19.916H318.269Zm0-55.961h455.383q4.616 0 8.462-3.846 3.847-3.846 3.847-8.462v-455.383q0-4.616-3.847-8.462-3.846-3.847-8.462-3.847H318.269q-4.615 0-8.462 3.847-3.846 3.846-3.846 8.462v455.383q0 4.616 3.846 8.462 3.847 3.846 8.462 3.846ZM186.348-128.08q-28.438 0-48.353-19.915-19.916-19.916-19.916-48.353v-483.459q0-11.433 8.211-19.659 8.212-8.225 19.769-8.225 11.557 0 19.769 8.225 8.211 8.226 8.211 19.659v483.459q0 4.615 3.847 8.462 3.846 3.846 8.462 3.846h483.459q11.432 0 19.658 8.226t8.226 19.658q0 11.654-8.226 19.865-8.226 8.211-19.658 8.211H186.348Zm119.613-667.882v480V-795.962Z"/></svg>