<svg xmlns="http://www.w3.org/2000/svg" height="24" viewBox="0 -960 960 960" width="24"><path d="M190.194-210.386v-311.807l-59.655 45.616q-9.423 6.884-20.615 5.36-11.192-1.524-18.403-10.942-7.212-9.418-5.635-20.629 1.577-11.211 10.692-18.404l93.616-71.269v-85.269q0-11.461 8.115-19.673 8.115-8.211 19.769-8.211 11.653 0 19.864 8.211 8.212 8.212 8.212 19.673v42.809l195.5-147.847q18.769-13.769 41.365-13.615 22.596.154 40.981 14.115l339.922 258.153q8.922 7.385 10.595 18.596t-5.519 20.646q-7.384 8.911-18.595 10.68-11.212 1.769-20.134-5.423l-54.617-41.77v311q0 28.438-20.011 48.353-20.012 19.916-48.257 19.916H258.462q-28.437 0-48.353-19.916-19.915-19.915-19.915-48.353Zm68.268 12.309h178.691v-129.616q0-18.962 13.404-32.366t32.366-13.404q18.77 0 32.174 13.404t13.404 32.366v129.616h178.883q5.192 0 8.75-3.462t3.558-8.847v-353.383L490.231-736.961q-3.269-2.5-7.404-2.5t-7.212 2.5L246.154-563.769v353.383q0 5.385 3.462 8.847 3.461 3.462 8.846 3.462Zm0 0h461.23-473.538 12.308ZM224.269-749.46q-14.461 0-23.191-11.115-8.731-11.115-2.885-23.615 11.192-29.308 36.865-47.192 25.673-17.885 57.51-17.885 13.817 0 25.336-7.173 11.52-7.173 16.25-19.25 4.077-7.462 10.846-12.443 6.769-4.98 15.654-4.98 15.185 0 23.631 12.365 8.445 12.365 1.791 25.364-12.384 28-37.528 45.039-25.144 17.038-55.855 17.038-13.693 0-25.212 6.539-11.52 6.538-16.058 18.539-4.654 8.038-11.263 13.403-6.61 5.366-15.891 5.366Z"/></svg>