<svg xmlns="http://www.w3.org/2000/svg" height="24" viewBox="0 -960 960 960" width="24"><path d="M851.922-704.537v449.074q0 28.361-19.916 48.277-19.916 19.915-48.269 19.915H176.263q-28.353 0-48.269-19.915-19.916-19.916-19.916-48.277v-449.074q0-28.361 19.916-48.277 19.916-19.915 48.269-19.915h607.474q28.353 0 48.269 19.915 19.916 19.916 19.916 48.277Zm-687.884 84.73h631.924v-84.654q0-4.615-3.847-8.462-3.846-3.846-8.462-3.846H176.347q-4.616 0-8.462 3.846-3.847 3.847-3.847 8.462v84.654Zm0 121.229v243.039q0 4.615 3.847 8.462 3.846 3.846 8.462 3.846h607.306q4.616 0 8.462-3.846 3.847-3.847 3.847-8.462v-243.039H164.038Zm0 255.347v-473.538 473.538Z"/></svg>