<svg xmlns="http://www.w3.org/2000/svg" height="24" viewBox="0 -960 960 960" width="24"><path d="M380.385-102.117q-65.423 0-111.846-45.942-46.422-45.942-46.422-110.402 0-31.116 15.173-58.058t52.788-62.633q12.461-10.924 21.654-22.713 9.193-11.789 22.078-26.596-47.923-73.385-73.462-153.115-25.538-79.73-25.538-156.499 0-50.269 15.346-75.903 15.346-25.635 44.46-25.635 43.961 0 83.73 47.058 39.769 47.057 63.423 97.365 13.962 30.577 23.269 63.463 9.308 32.885 14.962 68.886 5.654-36.001 15.058-68.886 9.404-32.886 23.481-63.463 22.961-50.308 62.923-97.365 39.961-47.058 83.922-47.058 29.114 0 44.556 25.635 15.442 25.634 15.442 75.903 0 76.769-25.634 156.499-25.635 79.73-73.558 153.115 12.885 14.807 22.078 26.596t21.654 22.713q37.615 35.691 52.884 62.633 15.27 26.942 15.27 58.058 0 64.46-46.519 110.402-46.519 45.942-111.942 45.942-41.153 0-70.384-11.308L480-124.732l-29.231 11.307q-29.231 11.308-70.384 11.308Zm1.538-55.96q20.731 0 43.885-5.692 23.154-5.693 43.961-16.693-10.23-4.807-18.653-15.942-8.423-11.134-8.423-19.365 0-7.808 10.73-13.327 10.731-5.519 26.577-5.519 15.461 0 26 5.711 10.538 5.712 10.538 13.135 0 8.231-8.423 19.365-8.423 11.135-18.654 15.942 20.808 11 43.962 16.693 23.154 5.692 43.884 5.692 43.577 0 73.808-29.173 30.231-29.173 30.231-71.211 0-19.847-10.827-37.885-10.827-18.039-32.673-36.193-14.039-12.038-21.981-20.423-7.942-8.384-21.634-25.807-31.692-40.808-52.404-52.077-20.712-11.269-62.212-11.269t-62.269 11.269Q396.577-419.577 365-378.769q-13.692 17.423-21.635 25.807-7.942 8.385-21.788 20.423-22.038 18.154-32.769 36.193-10.731 18.038-10.731 37.885 0 42.038 30.135 71.211 30.134 29.173 73.711 29.173ZM420-288.885q-8 0-14-9.403-6-9.404-6-21.712t6-21.808q6-9.5 14-9.5t14 9.5q6 9.5 6 21.808t-6 21.712q-6 9.403-14 9.403Zm120 0q-8 0-14-9.403-6-9.404-6-21.712t6-21.808q6-9.5 14-9.5t14 9.5q6 9.5 6 21.808t-6 21.712q-6 9.403-14 9.403ZM374.232-469.73q12.384-9.384 26.98-15.25 14.597-5.865 32.597-9.326-2.193-45.193-13.673-91.808-11.481-46.615-30.404-88-20.077-43.923-44.712-72.385-24.634-28.461-48.442-36.461-3 8.384-4.404 19.019-1.404 10.635-1.404 24.712 0 66.077 21.712 136.519 21.711 70.442 61.75 132.98Zm211.729 0q39.846-62.538 61.653-132.98 21.808-70.442 21.808-136.519 0-14.077-1.5-24.712t-4.308-19.019q-24 8-48.634 36.461-24.635 28.462-44.519 72.385-18.808 41.385-30.385 88-11.577 46.615-13.692 91.808 17.384 3.153 31.981 9.173 14.596 6.019 27.596 15.403Z"/></svg>