<svg xmlns="http://www.w3.org/2000/svg" height="24" viewBox="0 -960 960 960" width="24"><path d="M378.27-175.166v-46.951H291.5q-11.634 0-19.855-8.128-8.221-8.129-8.221-19.769 0-11.64 8.221-19.852 8.221-8.211 19.675-8.211h46.95v-404.038h-46.95q-11.454 0-19.675-8.129t-8.221-19.769q0-11.64 8.221-19.851 8.221-8.212 19.855-8.212h86.77v-46.815q0-11.397 8.129-19.617 8.129-8.221 19.769-8.221 11.64 0 19.851 8.235 8.212 8.235 8.212 19.508v46.91h82.538v-46.815q0-11.397 8.225-19.617 8.225-8.221 19.769-8.221 11.544 0 19.755 8.235 8.211 8.235 8.211 19.503v49.603q52.385 7.889 86.193 46.975 33.807 39.086 33.807 93.381 0 30.571-11.403 56.898-11.404 26.327-30.789 44.519 38.423 17.153 60.308 51.576 21.884 34.423 21.884 77.284 0 60.252-41.265 101.445-41.265 41.193-101.618 41.193h-17.117v46.951q0 11.454-8.239 19.674-8.239 8.221-19.658 8.221-11.64 0-19.851-8.221-8.212-8.22-8.212-19.674v-46.951h-82.538v46.951q0 11.454-8.225 19.674-8.225 8.221-19.865 8.221-11.64 0-19.755-8.221-8.116-8.22-8.116-19.674Zm15.961-332.91h155.615q36.724 0 61.823-25.03 25.1-25.029 25.1-61.904 0-36.874-25.1-61.99-25.099-25.115-61.823-25.115H394.231v174.039Zm0 229.999h195.615q36.724 0 61.823-25.029 25.1-25.03 25.1-61.905 0-36.874-25.1-61.99-25.099-25.115-61.823-25.115H394.231v174.039Z"/></svg>