<svg xmlns="http://www.w3.org/2000/svg" height="24" viewBox="0 -960 960 960" width="24"><path d="M613.692-188.078q-11.653 0-19.769-8.212-8.115-8.211-8.115-19.864 0-11.462 8.115-19.673 8.116-8.211 19.769-8.211h50.269q21.346 0 36.673-14.097 15.328-14.096 15.328-35.135v-83.923q0-35.192 20.98-63.038 20.981-27.846 54.75-36.808v-8.038q-33.577-8.654-54.654-35.75-21.076-27.095-21.076-61.98v-83.923q0-21.039-15.328-35.135-15.327-14.097-36.673-14.097h-50.269q-11.653 0-19.769-8.211-8.115-8.211-8.115-19.865 0-11.461 8.115-19.672 8.116-8.212 19.769-8.212h50.269q44.653 0 76.307 30.615 31.654 30.616 31.654 74.577v83.923q0 21.231 15.519 35.77 15.52 14.538 37.328 14.538 11.384 0 19.268 8.077 7.885 8.077 7.885 19.269v48.191q0 11.384-7.885 19.365-7.884 7.98-19.268 7.98-21.808 0-37.328 14.539-15.519 14.539-15.519 35.77v86.038q0 43.961-31.654 74.577-31.654 30.615-76.307 30.615h-50.269Zm-317.961 0q-44.653 0-76.153-30.615-31.5-30.616-31.5-74.577v-86.038q0-21.231-15.519-35.77-15.52-14.539-37.135-14.539-11.385 0-19.365-7.98-7.981-7.981-7.981-19.365v-48.191q0-11.192 7.981-19.269 7.98-8.077 19.365-8.077 21.615 0 37.135-14.538 15.519-14.539 15.519-35.77v-83.923q0-43.961 31.5-74.577 31.5-30.615 76.153-30.615h50.962q11.653 0 19.864 8.212 8.212 8.211 8.212 19.672 0 11.654-8.212 19.865-8.211 8.211-19.864 8.211h-50.962q-21.038 0-36.365 14.097-15.328 14.096-15.328 35.135v83.923q0 34.885-21.076 61.98-21.077 27.096-54.654 35.75v8.038q33.769 8.962 54.75 36.808 20.98 27.846 20.98 63.038v83.923q0 21.039 15.328 35.135 15.327 14.097 36.365 14.097h50.962q11.653 0 19.864 8.211 8.212 8.211 8.212 19.673 0 11.653-8.212 19.864-8.211 8.212-19.864 8.212h-50.962Z"/></svg>