<svg xmlns="http://www.w3.org/2000/svg" height="24" viewBox="0 -960 960 960" width="24"><path d="M675.98-853.076q57.596.385 97.923 40.519 40.326 40.135 40.326 97.579 0 10.151-1.308 27.844-1.307 17.692-4.307 40.941l-55.385 403q-4.346 30.692-27.922 48.884-23.577 18.192-52.136 18.192-18.248 0-33.94-8.865-15.692-8.866-26.769-24.481L499.693-368.155q-3.154-4.769-8.415-7.635-5.261-2.865-12.278-2.865-4.731 0-20.693 12.5L348.538-212.463q-12.077 16.731-28.546 26.539-16.469 9.807-35.146 9.807-28.576 0-51.806-18.442-23.231-18.442-27.077-49.634l-54.384-402q-3.193-23.423-4.404-41.053-1.212-17.631-1.212-27.803 0-57.566 40.131-97.796 40.13-40.231 97.535-40.231 32.256 0 53.371 9.347 21.115 9.346 41.058 20.346 19.942 11 42.912 20.654 22.97 9.653 58.78 9.653 36.365 0 59.615-9.562t43.5-20.745q20.097-11 40.881-20.346 20.784-9.347 52.234-9.347Zm.174 55.961q-21.841 0-38.459 8.288-16.618 8.289-35.618 18.981-25.962 14.231-53.596 23.481-27.635 9.25-68.481 9.25-40.077 0-67.711-9.25-27.635-9.25-53.404-23.481-19.192-10.692-36.195-18.981-17.003-8.288-38.844-8.288-33.793 0-57.858 24.065-24.065 24.064-24.065 57.858 0 8.192.904 23.246.904 15.054 4.096 35.254l55 404.692q1.308 9.115 7.943 14.019 6.634 4.904 14.788 4.904 6.539 0 11.423-3.885 4.885-3.884 8.847-9.538l107.154-151.078q12.077-16.922 29.865-26.98 17.789-10.058 38.096-10.058 19.922 0 37.864 9.904 17.942 9.904 30.019 27.134L656.692-243.5q3.336 4.654 7.444 8.038 4.107 3.385 10.003 3.385 8.715 0 15.686-5.347 6.971-5.348 8.444-13.576l55-405.707q3-19.985 4-35.109 1-15.124 1-23.191 0-33.869-24.123-57.989-24.124-24.119-57.992-24.119ZM480-515Z"/></svg>