<svg xmlns="http://www.w3.org/2000/svg" height="24" viewBox="0 -960 960 960" width="24"><path d="M225.422-225.655v39.309q0 16.281-11.458 27.678-11.458 11.397-27.826 11.397-16.368 0-27.618-11.397-11.249-11.397-11.249-27.678v-278.115q0-5.664.807-11.328.808-5.664 2.705-11.372l71.333-200.184q6.998-20.491 24.353-32.938 17.356-12.446 39.416-12.446h388.23q22.06 0 39.416 12.446 17.355 12.447 24.545 32.938l71.141 200.168q1.897 5.639 2.705 11.331.807 5.692.807 11.385v278.115q0 16.281-11.457 27.678-11.458 11.397-27.826 11.397-16.369 0-27.618-11.397-11.25-11.397-11.25-27.678v-39.309H225.422Zm.5-306.42h508.156l-48.193-136.617q-1.539-3.846-4.616-5.962-3.077-2.115-7.308-2.115H286.039q-4.231 0-7.308 2.115-3.077 2.116-4.616 5.962l-48.193 136.617Zm-22.691 55.96v194.5-194.5Zm96.841 147.538q21.12 0 35.908-14.784 14.789-14.784 14.789-35.904 0-21.119-14.784-35.908-14.784-14.788-35.904-14.788-21.119 0-35.908 14.784-14.788 14.784-14.788 35.903 0 21.12 14.784 35.908 14.784 14.789 35.903 14.789Zm359.847 0q21.119 0 35.908-14.784 14.788-14.784 14.788-35.904 0-21.119-14.784-35.908-14.784-14.788-35.903-14.788-21.12 0-35.908 14.784-14.789 14.784-14.789 35.903 0 21.12 14.784 35.908 14.784 14.789 35.904 14.789Zm-456.688 46.962h553.538v-194.5H203.231v194.5Z"/></svg>