<svg xmlns="http://www.w3.org/2000/svg" height="24" viewBox="0 -960 960 960" width="24"><path d="M741.654-52.116q-24.731 0-48.211-3.712-23.481-3.711-45.904-11.903L114.308-261.847q-8.384-3.538-12.673-11.615-4.288-8.077-1.057-16.769 3.346-8.5 11.576-12.442 8.231-3.942 16.923-.404l256.616 93.5 72.231-182.077-153.039-152.884q-23.808-22.962-19.231-55.942 4.577-32.981 34.115-50.365l150.847-88.077q13.885-8.039 29.019-9.097 15.134-1.057 29.211 4.673 13.885 5.231 24.596 16.135 10.712 10.904 16.327 26.096l13 42.5q15.231 49.962 46.115 84.923 30.885 34.962 79.732 52.347l14.808-44.462q2.73-8.5 10.711-12.596t16.48-1.366q8.5 2.731 12.692 10.866 4.193 8.134 1.462 16.634l-31.731 95.076q-73.654-15-123.653-57.827-50-42.827-75.846-114.288L403.576-553.5l108.539 126.616q6.346 7.615 7.653 16.904 1.308 9.288-2.307 18.327l-79.269 201.23 143.039 51.692 87.231-261.461q9.615 4.308 19.73 6.942 10.115 2.635 21.308 5.25l-87.347 264.731 37.616 13.731q20.231 7.269 39.923 10.519 19.693 3.25 41.962 3.25 18.462 0 35.827-2.25t34.635-7.442q9.192-2.731 17.326.711 8.135 3.442 11.365 12.02 3.039 9.191-1.25 17.672-4.288 8.48-13.48 11.211-20.192 6-41.058 8.866-20.865 2.865-43.365 2.865ZM653.961-707.77q-30 0-51.115-21.115Q581.731-750 581.731-780q0-30 21.115-51.115 21.115-21.115 51.115-21.115 29.808 0 51.019 21.115T726.191-780q0 30-21.211 51.115-21.211 21.115-51.019 21.115Z"/></svg>