<svg xmlns="http://www.w3.org/2000/svg" height="24" viewBox="0 -960 960 960" width="24"><path d="M234.693-194.886q-41-41.384-64.211-95.423-23.211-54.038-23.211-111.74 0-57.865 21.999-115.1 22-57.235 71.389-106.123 36.265-36.266 91.073-59.016 54.808-22.749 123.289-34.672 68.48-11.923 148.249-13.866 79.769-1.942 164.998 4.558 6.461 81.96 4.577 160.652-1.885 78.692-13.538 147.634-11.654 68.942-34.596 124.885-22.943 55.942-59.378 92.412-48.454 48.66-103.66 71.037-55.205 22.377-111.903 22.377-59.231 0-116.25-22.807-57.019-22.808-98.827-64.808Zm84.845-5.042q30.154 19.005 63.731 28.005T450-163.231q45.76-.307 90.611-18.461 44.851-18.154 84.851-58.731 17.479-17.838 35.444-50.047 17.964-32.208 31.442-83.987 13.477-51.778 20.449-125.315 6.972-73.536 2.72-174.995-48.358-2.002-109.438-1.118Q545-675 484.173-665.904q-60.827 9.096-114.673 28.154-53.846 19.058-87.192 52.596-43.5 43.308-61.289 89.289-17.788 45.981-17.788 86.122 0 55.458 21.961 101.235 21.962 45.777 46.193 68.624 31.73-73.461 90.287-141.673 58.557-68.211 150.596-119.827-69.154 60.154-118.269 132.322-49.115 72.167-74.461 169.134Zm0 .082Zm0 0Z"/></svg>