<svg xmlns="http://www.w3.org/2000/svg" height="24" viewBox="0 -960 960 960" width="24"><path d="M480.052-134.426q-23.321 0-41.263-12.288-17.942-12.289-24.827-32.904h-13.154q-22.668 0-39.314-16.647-16.646-16.646-16.646-39.302v-128.011q-60.539-36.192-94.462-96.226t-33.923-129.097q0-110.791 76.473-187.31 76.473-76.518 187.018-76.518t187.064 76.518q76.519 76.519 76.519 187.088 0 69.526-33.923 129.44-33.923 59.913-94.462 96.105v128.011q0 22.656-16.646 39.302-16.646 16.647-39.314 16.647h-13.154q-6.885 20.615-24.774 32.904-17.89 12.288-41.212 12.288Zm-79.244-101.152h158.384v-37.539H400.808v37.539Zm0-72.116h158.384v-37.961H400.808v37.961Zm-8-93.921h64.962V-517.27l-68.924-68.923q-6.576-6.75-6.769-15.814-.192-9.065 6.841-16.109 7.115-6.961 15.961-6.961t15.89 6.961L480-558.884l59.231-59.232q6.75-6.576 15.814-6.769 9.065-.192 16.109 6.841 6.961 7.115 6.961 15.961t-6.961 15.89l-68.924 68.997v115.581h64.962q53.671-26.072 87.028-75.462 33.357-49.39 33.357-112.064 0-86.987-60.286-147.307-60.286-60.321-147.256-60.321t-147.291 60.3q-60.321 60.301-60.321 147.291 0 62.678 33.357 112.081 33.357 49.403 87.028 75.482ZM480-558.884Zm0-40.308Z"/></svg>