<svg xmlns="http://www.w3.org/2000/svg" height="24" viewBox="0 -960 960 960" width="24"><path d="m798.267-585-39.037-39.037 27.538-28.346q3.654-3.847 3.654-8.655t-3.654-8.654L669.692-786.768q-3.846-3.654-8.654-3.654t-8.655 3.654l-28.346 27.538L584-799.267l27.769-28.269q19.807-19.808 48.615-19.308 28.807.5 48.807 20.308l117.345 117.345q19.808 20 19.808 48.307 0 28.308-19.808 48.115L798.267-585ZM348.231-134.156q-19.807 20-48.115 20-28.307 0-48.115-20L134.387-252.078q-19.885-19.885-19.885-48.192 0-28.308 19.885-48.384L161.925-376l39.845 39.537-27.961 27.846q-3.846 3.847-3.846 8.655t3.846 8.654l117.499 117.499q3.846 3.846 8.654 3.846t8.655-3.846l27.846-27.961L376-161.925l-27.769 27.769ZM743-434.192l54.153-53.961q3.654-3.847 3.654-8.847t-3.654-8.847L505.847-797.153Q502-800.807 497-800.807t-8.847 3.654L434.192-743q-3.846 3.846-3.846 8.654 0 4.809 3.846 8.655l291.499 291.499q3.846 3.846 8.655 3.846 4.808 0 8.654-3.846ZM471.847-163.039 526-217.615q3.654-3.847 3.654-8.655T526-234.924L234.924-526q-3.846-3.654-8.654-3.654T217.615-526l-54.576 54.153Q159.193-468 159.193-463t3.846 8.847l291.114 291.114q3.847 3.846 8.847 3.846t8.847-3.846ZM454.692-385.5l120.616-119.808-70-70L385.5-454.692l69.192 69.192ZM511.5-123.617q-19.577 19.577-48.25 19.577T415-123.617L123.617-415q-19.885-19.885-19.885-48.154 0-28.269 19.885-48.346l54.153-54.345q19.885-19.885 48.192-19.885 28.308 0 48.384 19.885l71.116 71.115 120.616-120.423-71.308-71.001q-19.884-19.884-19.884-48.345 0-28.462 19.884-48.538l54.538-54.346q19.885-19.885 48.192-19.885t48.384 19.885l291.499 291.499q19.885 20.077 19.885 48.384t-19.885 48.192l-54.346 54.538q-20.076 19.884-48.538 19.884-28.461 0-48.345-19.884l-71.001-71.308L494.73-345.462l71.115 71.116q19.577 19.576 19.577 48.384 0 28.807-19.577 48.192L511.5-123.617Z"/></svg>