<svg xmlns="http://www.w3.org/2000/svg" height="24" viewBox="0 -960 960 960" width="24"><path d="M480.053-440.808q-16.635 0-27.94-11.252-11.305-11.253-11.305-27.887 0-16.635 11.252-27.94 11.253-11.305 27.887-11.305 16.635 0 27.94 11.252 11.305 11.253 11.305 27.887 0 16.635-11.252 27.94-11.253 11.305-27.887 11.305Zm.039 332.73q-77.152 0-145.066-29.325-67.914-29.324-118.152-79.595-50.238-50.27-79.517-118.055-29.279-67.785-29.279-144.855 0-77.152 29.325-145.066 29.324-67.914 79.595-118.152 50.27-50.238 118.055-79.517 67.785-29.279 144.855-29.279 77.152 0 145.066 29.325 67.914 29.324 118.152 79.595 50.238 50.27 79.517 118.055 29.279 67.785 29.279 144.855 0 77.152-29.325 145.066-29.324 67.914-79.595 118.152-50.27 50.238-118.055 79.517-67.785 29.279-144.855 29.279Zm-.105-55.96q131.898 0 223.936-92.026 92.039-92.026 92.039-223.923 0-131.898-92.026-223.936-92.026-92.039-223.923-92.039-131.898 0-223.936 92.026-92.039 92.026-92.039 223.923 0 131.898 92.026 223.936 92.026 92.039 223.923 92.039ZM480-480ZM319.27-298.886l217.616-109.562q4.767-2.13 8.652-6.014 3.884-3.885 6.192-8.616l109.577-217.844q5.384-9.808-2.443-17.596-7.827-7.789-17.942-2.789L423.078-551.73q-4.731 2.308-8.594 6.156-3.862 3.849-6.022 8.652L298.886-319.27q-5.577 10.384 2.211 18.173 7.789 7.788 18.173 2.211Z"/></svg>