<svg xmlns="http://www.w3.org/2000/svg" height="24" viewBox="0 -960 960 960" width="24"><path d="M361.672-391.615q-20.749 0-34.999-14.194-14.25-14.194-14.25-34.942 0-20.749 14.194-34.999Q340.81-490 361.559-490q20.749 0 34.999 14.194 14.25 14.193 14.25 34.942 0 20.749-14.194 34.999-14.194 14.25-34.942 14.25Zm236.769 0q-20.749 0-34.999-14.194-14.25-14.194-14.25-34.942 0-20.749 14.194-34.999Q577.58-490 598.328-490q20.749 0 34.999 14.194 14.25 14.193 14.25 34.942 0 20.749-14.194 34.999-14.193 14.25-34.942 14.25ZM479.987-164.038q131.898 0 223.936-92.015 92.039-92.015 92.039-224.087 0-23.654-3-45.831-3-22.176-11-43.221-21 5-41.193 7.5-20.192 2.5-43.24 2.5-89.931 0-169.98-38.443-80.049-38.442-136.672-107.942-31.569 76.885-90.108 133.981-58.538 57.096-136.731 85.647v5.907q0 131.927 92.026 223.965 92.026 92.039 223.923 92.039Zm.105 55.96q-77.152 0-145.066-29.325-67.914-29.324-118.152-79.595-50.238-50.27-79.517-118.055-29.279-67.785-29.279-144.855 0-77.152 29.325-145.066 29.324-67.914 79.595-118.152 50.27-50.238 118.055-79.517 67.785-29.279 144.855-29.279 77.152 0 145.066 29.325 67.914 29.324 118.152 79.595 50.238 50.27 79.517 118.055 29.279 67.785 29.279 144.855 0 77.152-29.325 145.066-29.324 67.914-79.595 118.152-50.27 50.238-118.055 79.517-67.785 29.279-144.855 29.279Zm-76.17-678.769q46.577 82.464 127.159 126.675 80.582 44.212 166.57 44.212 16.474 0 31.888-1.692 15.414-1.693 31.269-5.347-40.076-79.923-115.534-126.443-75.458-46.52-165.447-46.52-19.981 0-39.02 2.424-19.039 2.423-36.885 6.691ZM173.653-550.729q55.078-27.115 106.829-82.347 51.751-55.231 69.75-134.809-70.77 31.884-115.924 88.654-45.155 56.77-60.655 128.502Zm230.269-236.078Zm-53.69 18.922Z"/></svg>