<svg xmlns="http://www.w3.org/2000/svg" height="24" viewBox="0 -960 960 960" width="24"><path d="M174.039-188.078q-28.346 0-47.153-18.808-18.808-18.807-18.808-47.1v-449.72q0-28.293 19.962-48.254 19.961-19.962 48.307-19.962h191.306q13.741 0 26.435 5.355 12.693 5.354 22.105 14.878l55.729 55.729h311.815q25.454 0 43.242 16.134Q844.767-663.692 848.46-640H449l-75.962-75.962H176.347q-5.385 0-8.847 3.462-3.462 3.462-3.462 8.847V-250.5q0-5.385 2.116-4.039 2.115 1.347 5.577 3.27l77.039-256.385q6.903-21.903 25.131-35.297 18.228-13.395 40.522-13.395h518.5q34.538 0 55.211 27.462 20.673 27.461 10.442 60.192l-70.038 232.537q-7.038 21.923-25.038 35-18 13.077-40.463 13.077H174.039Zm54.075-55.96h535.04q4.231 0 7.5-2.308 3.27-2.308 4.424-6.539l69.769-231.73q1.923-6.154-1.923-10.962-3.847-4.808-10.001-4.808h-518.5q-4.231 0-7.501 2.307-3.269 2.308-4.423 6.539l-74.385 247.501Zm-64.076-263v-208.924 208.924Zm64.076 263 74.385-247.501q1.154-4.231 1.923-6.539l.77-2.307-1.347 4.808q-1.346 4.808-3.269 10.962l-69.769 231.73q-1.154 4.231-1.923 6.539l-.77 2.308Z"/></svg>