<svg xmlns="http://www.w3.org/2000/svg" height="24" viewBox="0 -960 960 960" width="24"><path d="M440.038-108.078q-23.083 0-39.521-16.439-16.439-16.438-16.439-39.521v-186.348H256.732q-28.642 0-48.648-19.814-20.006-19.813-20.006-48.07v-268.692q0-51.802 37.317-88.381t89.72-36.579h422.769q14.028 0 24.033 10.005t10.005 24.033v359.614q0 28.257-20.28 48.07-20.28 19.814-48.758 19.814H575.537v186.348q0 23.083-16.438 39.521-16.438 16.439-39.522 16.439h-79.539Zm-196-440.268h471.924v-207.616h-53.001v123.424q0 11.634-8.225 19.759t-19.865 8.125q-11.64 0-19.755-8.125-8.115-8.125-8.115-19.759v-123.424h-59.04v50.04q0 11.634-8.267 19.759-8.267 8.124-19.727 8.124-11.459 0-19.713-8.124-8.253-8.125-8.253-19.759v-50.04H315.358q-30.209 0-50.764 19.846-20.556 19.846-20.556 49.112v138.658Zm12.694 142h446.152q5.385 0 9.231-3.462 3.847-3.462 3.847-8.462v-74.115H244.038v74.115q0 5 3.655 8.462 3.654 3.462 9.039 3.462Zm-12.694 0V-492.385v86.039Z"/></svg>