<svg xmlns="http://www.w3.org/2000/svg" height="24" viewBox="0 -960 960 960" width="24"><path d="M54.617-250.578q-13.375 0-22.938-9.562-9.562-9.562-9.562-22.937v-14.046q0-39.723 41.192-64.569 41.192-24.846 107.076-24.846 12.874 0 24.668.847 11.794.846 23.178 2.994-11.192 18.428-16.538 37.828-5.346 19.4-5.346 39.776v54.515H54.617Zm241.697 0q-14.505 0-24.351-9.894-9.846-9.894-9.846-24.144v-18.933q0-27.202 15.365-50.307t44.961-39.912q29.596-16.808 69.7-25.558 40.103-8.75 87.555-8.75 48.364 0 88.467 8.75t69.603 25.558q29.5 16.807 44.904 39.695 15.404 22.887 15.404 50.524v18.933q0 14.25-9.991 24.144-9.99 9.894-24.24 9.894H296.314Zm467.339 0v-54.395q0-21.258-5.192-40.719-5.192-19.461-15.385-36.961 11.77-2.192 23.058-3.038 11.288-.847 23.865-.847 65.885 0 106.98 24.821 41.097 24.821 41.097 64.487v14.153q0 13.375-9.618 22.937-9.618 9.562-23.074 9.562H763.653Zm-443.307-55.96h320.116v-4.231q-5.539-26.462-50.769-43.904-45.231-17.442-109.443-17.442-64.212 0-109.539 17.442t-50.365 43.904v4.231ZM170.293-429.422q-27.484 0-46.869-19.508-19.384-19.508-19.384-46.902 0-27.743 19.508-46.916 19.508-19.172 46.901-19.172 27.744 0 47.109 19.174 19.365 19.175 19.365 47.083 0 27.087-19.156 46.664t-47.474 19.577Zm619.717 0q-27.203 0-46.779-19.628-19.577-19.628-19.577-46.667 0-27.858 19.628-47.031 19.628-19.172 46.856-19.172 28.053 0 47.226 19.174 19.173 19.175 19.173 46.968 0 27.443-19.127 46.899-19.126 19.457-47.4 19.457Zm-310.019-32.692q-42.26 0-71.99-29.671-29.731-29.671-29.731-72.059 0-43.018 29.672-72.47 29.671-29.451 72.058-29.451 43.019 0 72.47 29.412 29.452 29.413 29.452 72.518 0 42.26-29.413 71.991-29.412 29.73-72.518 29.73Zm.355-55.96q19 0 32.308-13.558t13.308-32.558q0-19-13.214-32.308-13.214-13.307-32.748-13.307-18.654 0-32.212 13.214-13.557 13.214-13.557 32.747 0 18.654 13.557 32.212 13.558 13.558 32.558 13.558Zm.269 211.536ZM480-563.844Z"/></svg>