<svg xmlns="http://www.w3.org/2000/svg" height="24" viewBox="0 -960 960 960" width="24"><path d="M434.039-454.039v71.539q0 11.798 8.332 20.129 8.331 8.332 20.146 8.332h35.175q11.817 0 20.043-8.332 8.226-8.331 8.226-20.129v-71.539h71.731q11.817 0 20.043-8.332 8.226-8.331 8.226-20.146v-35.175q0-11.817-8.226-20.043-8.226-8.226-20.043-8.226h-71.731v-71.731q0-11.817-8.226-20.043-8.226-8.226-20.043-8.226h-35.175q-11.815 0-20.146 8.226-8.332 8.226-8.332 20.043v71.731H362.5q-11.798 0-20.129 8.226-8.332 8.226-8.332 20.043v35.175q0 11.815 8.332 20.146 8.331 8.332 20.129 8.332h71.539ZM480-113.232q-6.003 0-11.673-1t-10.964-3q-124.209-44.5-197.15-156.5-72.942-111.999-72.942-242.534v-177.24q0-21.379 12.322-38.684 12.322-17.305 31.946-24.963L456-841.345q12.096-4.423 24-4.423t24.192 4.423l224.461 84.192q19.432 7.658 31.754 24.963 12.322 17.305 12.322 38.684v177.24q0 130.535-72.942 242.534-72.941 112-197.048 156.5-5.456 2-11.096 3t-11.643 1Zm0-54.499q102.833-33.072 169.801-130.892Q716.769-396.442 716.769-516v-177.92q0-3.654-2.115-6.827-2.116-3.174-5.962-4.712l-224.461-83.579q-1.923-.77-4.231-.77t-4.231.77l-224.461 83.579q-3.846 1.538-5.962 4.712-2.115 3.173-2.115 6.827V-516q0 119.558 66.968 217.377Q377.167-200.803 480-167.731Zm0-311.192Z"/></svg>