<svg xmlns="http://www.w3.org/2000/svg" height="24" viewBox="0 -960 960 960" width="24"><path d="M419.499-378.27 351.768-74.808q-2.615 10.23-10.61 16.461-7.995 6.23-18.851 6.23-13.972 0-22.582-10.537-8.609-10.538-5.686-24.115l113-576.847q4.346-23.268 22.208-35.788 17.862-12.519 37.06-12.519 19.562 0 36.582 8.693 17.021 8.692 27.341 25.884l40 64q18.769 30.346 53.135 56.462 34.365 26.115 81.058 40.231V-570q0-9.525 6.098-15.724 6.097-6.199 15.615-6.199 9.517 0 15.729 6.199 6.211 6.199 6.211 15.724v496.154q0 9.525-6.193 15.628-6.194 6.102-15.712 6.102-9.517 0-15.633-6.102-6.115-6.103-6.115-15.628V-459.54q-51.308-11-96.904-39.077-45.597-28.078-82.097-71.694l-29.808 150.733 74.231 70.731q5.115 5.115 7.827 11.305 2.711 6.19 2.711 13.387V-80q0 11.634-8.224 19.76-8.225 8.124-19.865 8.124-11.64 0-19.756-8.125-8.115-8.125-8.115-19.759v-208.885L419.499-378.27ZM258.5-455.655l-39.461-7.461q-11.538-2.115-18.115-11.75-6.577-9.634-3.961-21.288l30-157q5.423-28.769 30.441-43.788 25.019-15.019 53.904-9.288 12.423 2.808 19.23 13.25 6.808 10.442 4.385 22.865l-36.462 187.537q-2.923 14.017-14.557 21.874-11.635 7.857-25.404 5.049ZM532.307-747.77q-30.154 0-51.192-21.038T460.077-820q0-30.154 21.038-51.192t51.192-21.038q30.154 0 51.192 21.038T604.537-820q0 30.154-21.038 51.192t-51.192 21.038Z"/></svg>