<svg xmlns="http://www.w3.org/2000/svg" height="24" viewBox="0 -960 960 960" width="24"><path d="M147.271-560q0-43.038 25.999-79.672 26-36.635 74.077-51.673 14.808-90.846 81.317-145.712 66.509-54.865 151.364-54.865 84.856 0 151.337 54.865 66.48 54.866 81.288 145.712 48.077 15.038 74.077 51.673 25.999 36.634 25.999 79.713 0 67.574-50.076 104.92-50.077 37.346-109.461 25.537L512-154.618q-4.792 9.515-13.056 13.892-8.265 4.377-17.335 4.377-9.314 0-17.423-4.365-8.109-4.366-13.109-13.904L309.578-429.502q-61.384 12.963-111.846-25.124Q147.271-492.712 147.271-560Zm135.31 79.192q14.888 0 29.079-4.841T337.595-502l22.068-22 25.08 16q21.065 14 45.861 20.596 24.797 6.596 49.847 6.596 25.049 0 49.395-6.596Q554.192-494 575.257-508l25.08-16 22.068 22q11.744 11.51 25.935 16.351 14.191 4.841 29.079 4.841 32.732 0 56.041-23.236 23.309-23.236 23.309-55.865 0-29.591-18.553-51.514-18.554-21.923-48.639-26.962l-30-4-2-32q-5.308-68.692-56.346-115.134Q550.192-835.962 480-835.962t-121.231 46.443q-51.038 46.442-56.258 115.232l-2.088 31.902-29.75 6q-29.75 6-48.596 26.443-18.846 20.442-18.846 50.033 0 32.55 23.309 55.826 23.309 23.275 56.041 23.275Zm199.111 262.77L600.001-448.04l-6.193-5.423q-27.486 13.923-56.86 21.269-29.374 7.346-56.366 7.346-25.653 0-54.694-6.769-29.042-6.769-56.927-21.846l-6.192 5.423 118.923 230.002ZM480-658.385Z"/></svg>