<svg xmlns="http://www.w3.org/2000/svg" height="24" viewBox="0 -960 960 960" width="24"><path d="M282.334-265.655q-89.237 0-151.747-62.477-62.509-62.477-62.509-151.73 0-89.253 62.517-151.868 62.518-62.615 151.828-62.615 61.13 0 113.353 32.75 52.223 32.75 78.3 86.443h349.577q28.161 0 48.215 20.053 20.054 20.054 20.054 48.215v53.768q0 28.161-20.054 48.215-20.054 20.053-48.215 20.053h-10.924v50.924q0 28.161-20.054 48.215-20.053 20.054-48.214 20.054h-54.575q-28.161 0-48.215-20.054-20.054-20.054-20.054-48.215v-50.924H474.076q-26.077 53.693-78.328 86.443-52.251 32.75-113.414 32.75Zm.144-55.96q65.681 0 105.109-40.246 39.428-40.245 47.314-78.947h242.903v106.884q0 5.385 3.462 8.847 3.462 3.462 8.847 3.462h54.348q5.385 0 8.846-3.462 3.462-3.462 3.462-8.847v-106.884h66.884q5.385 0 8.847-3.461 3.462-3.462 3.462-8.847v-53.768q0-5.385-3.462-8.847-3.462-3.461-8.847-3.461H434.808q-7.885-38.738-47.308-78.965-39.423-40.228-105.096-40.228t-112.019 46.37q-46.347 46.37-46.347 112.039 0 65.668 46.38 112.014 46.379 46.347 112.06 46.347Zm.051-97.001q25.24 0 43.259-18.126 18.019-18.125 18.019-43.364 0-25.24-18.126-43.259-18.125-18.019-43.364-18.019-25.24 0-43.259 18.126-18.019 18.125-18.019 43.364 0 25.24 18.126 43.259 18.125 18.019 43.364 18.019ZM282.423-480Z"/></svg>