<svg xmlns="http://www.w3.org/2000/svg" height="24" viewBox="0 -960 960 960" width="24"><path d="M479.95-113.271q-75.438 0-128.559-53.156-53.121-53.156-53.121-128.574v-359.423h-4.038q-28.437 0-48.353-19.964t-19.916-48.305v-70.96q0-28.161 19.964-48.215 19.964-20.054 48.305-20.054H665.96q28.161 0 48.215 20.054 20.054 20.054 20.054 48.215v70.96q0 28.341-20.054 48.305t-48.215 19.964h-4.038v364.808q-2.5 73.693-54.996 125.019-52.495 51.326-126.976 51.326ZM294.232-710.384H665.96q5.193 0 8.751-3.462t3.558-8.847v-70.96q0-5.193-3.558-8.751t-8.751-3.558H294.232q-5.385 0-8.847 3.558-3.462 3.558-3.462 8.751v70.96q0 5.385 3.462 8.847 3.462 3.462 8.847 3.462ZM480-169.232q45.039 0 79.058-27.942 34.02-27.943 43.019-69.943H520q-11.634 0-19.759-8.129t-8.125-19.769q0-11.64 8.125-19.851 8.125-8.211 19.759-8.211h85.962v-64.04H520q-11.634 0-19.759-8.129t-8.125-19.769q0-11.64 8.125-19.851 8.125-8.211 19.759-8.211h85.962v-64.04H520q-11.634 0-19.759-8.129t-8.125-19.769q0-11.64 8.125-19.851 8.125-8.211 19.759-8.211h85.962v-91.347H354.231v359.423q0 52.404 36.682 89.087 36.683 36.682 89.087 36.682ZM281.923-710.384v-95.578V-710.384Z"/></svg>