<svg xmlns="http://www.w3.org/2000/svg" height="24" viewBox="0 -960 960 960" width="24"><path d="M91.039-181.886q-25.163 0-43.658-18.082-18.495-18.083-18.495-43.263h147.461q-28.437 0-48.353-19.915-19.916-19.916-19.916-48.353v-432.962q0-28.437 19.916-48.353 19.916-19.915 48.269-19.915h607.474q28.353 0 48.269 19.915 19.916 19.916 19.916 48.353v432.962q0 28.437-19.916 48.353-19.916 19.915-48.353 19.915h147.461q0 25.231-18.495 43.288-18.495 18.057-43.658 18.057H91.039Zm388.856-26.768q13.028 0 21.912-8.779 8.885-8.78 8.885-21.808t-8.779-21.912q-8.78-8.885-21.808-8.885t-21.912 8.78q-8.885 8.779-8.885 21.807 0 13.028 8.779 21.912 8.78 8.885 21.808 8.885Zm-303.548-90.537h607.306q4.616 0 8.462-3.846 3.847-3.847 3.847-8.462v-432.962q0-4.615-3.847-8.462-3.846-3.846-8.462-3.846H176.347q-4.616 0-8.462 3.846-3.847 3.847-3.847 8.462v432.962q0 4.615 3.847 8.462 3.846 3.846 8.462 3.846Zm-12.309 0v-457.578 457.578Z"/></svg>