<svg xmlns="http://www.w3.org/2000/svg" height="24" viewBox="0 -960 960 960" width="24"><path d="M235.774-184.155q-45.678 0-77.688-32.17-32.009-32.169-32.009-77.714H95.655q-14.25 0-24.145-9.99-9.894-9.991-9.894-24.241v-376.28q0-28.348 19.814-48.264 19.813-19.915 48.455-19.915h469.076q28.161 0 48.215 20.054 20.054 20.053 20.054 48.214v80.808h67.966q16.283 0 30.617 7.035 14.333 7.035 23.916 20.272l101.837 136.61q3.702 4.449 5.356 9.591 1.654 5.142 1.654 10.977v110.898q0 14.25-9.99 24.241-9.991 9.99-24.24 9.99h-35.654q0 45.795-32.196 77.839-32.196 32.045-77.875 32.045-45.678 0-77.688-32.17-32.009-32.169-32.009-77.714H345.845q0 45.923-32.196 77.903-32.196 31.981-77.875 31.981Zm.091-55.96q22.404 0 38.212-15.712 15.808-15.712 15.808-38.212 0-22.5-15.794-38.212-15.793-15.712-38.13-15.712-22.5 0-38.212 15.712-15.712 15.712-15.712 38.212 0 22.5 15.712 38.212 15.712 15.712 38.116 15.712ZM117.576-349.999h28.116q11.961-22.847 36.076-37.982 24.116-15.135 54.193-15.135 29.308 0 53.712 14.847 24.404 14.846 36.558 38.27H611.27v-354.462q0-5.385-3.558-8.846-3.558-3.462-8.751-3.462H129.885q-4.808 0-8.558 3.846-3.751 3.847-3.751 8.462v354.462Zm601.136 109.884q22.404 0 38.212-15.712 15.808-15.712 15.808-38.212 0-22.5-15.794-38.212-15.793-15.712-38.13-15.712-22.501 0-38.212 15.712-15.712 15.712-15.712 38.212 0 22.5 15.712 38.212 15.711 15.712 38.116 15.712ZM667.23-428.384h178.424L744.346-562.693q-1.924-2.307-4.424-3.654-2.5-1.346-5.577-1.346H667.23v139.309Zm-302.807-105Z"/></svg>