<svg xmlns="http://www.w3.org/2000/svg" height="24" viewBox="0 -960 960 960" width="24"><path d="M216.347-108.078q-28.257 0-48.263-20.006-20.006-20.006-20.006-48.263v-448.921q0-28.257 20.006-48.263 20.006-20.006 48.263-20.006h89.308q0-72.807 50.769-123.576Q407.193-867.882 480-867.882q72.807 0 123.576 50.769 50.769 50.769 50.769 123.576h89.308q28.257 0 48.263 20.006 20.006 20.006 20.006 48.263v448.921q0 28.257-20.006 48.263-20.006 20.006-48.263 20.006H216.347Zm0-55.96h527.306q4.616 0 8.462-3.847 3.847-3.846 3.847-8.462v-448.921q0-4.616-3.847-8.463-3.846-3.846-8.462-3.846H216.347q-4.616 0-8.462 3.846-3.847 3.847-3.847 8.463v448.921q0 4.616 3.847 8.462 3.846 3.847 8.462 3.847Zm145.268-529.499h236.77q0-49.192-34.501-83.789-34.502-34.596-83.789-34.596t-83.883 34.529q-34.597 34.529-34.597 83.856ZM204.038-164.038V-637.577v473.539Zm275.75-260.002q69.865 0 120.673-46.423 50.807-46.423 50.692-101.332 0-10.893-8.308-18.741-8.307-7.849-20.102-7.849-9.735 0-17.412 6.866-7.677 6.865-10.638 18.249-8.693 40.885-41.058 67.077Q521.269-480 479.788-480q-41.481 0-73.904-26.193-32.423-26.192-41-67.077-2.961-11.692-10.516-18.403-7.556-6.712-17.123-6.712-11.783 0-20.148 7.849-8.365 7.848-8.365 18.741 0 54.909 50.596 101.332 50.596 46.423 120.46 46.423Z"/></svg>