<svg xmlns="http://www.w3.org/2000/svg" height="24" viewBox="0 -960 960 960" width="24"><path d="M255.539-108.078q-28.257 0-48.263-20.006-20.005-20.006-20.005-48.263v-370.537q0-28.257 20.005-48.263 20.006-20.005 48.263-20.005h50.116v-78.169q0-73.023 50.769-123.792Q407.193-867.882 480-867.882q72.807 0 123.576 50.769 50.769 50.769 50.769 123.792v78.169h50.116q28.257 0 48.263 20.005 20.005 20.006 20.005 48.263v370.537q0 28.257-20.005 48.263-20.006 20.006-48.263 20.006H255.539Zm0-55.96h448.922q5.385 0 8.846-3.462 3.462-3.462 3.462-8.847v-370.537q0-5.385-3.462-8.847-3.461-3.461-8.846-3.461H255.539q-5.385 0-8.846 3.461-3.462 3.462-3.462 8.847v370.537q0 5.385 3.462 8.847 3.461 3.462 8.846 3.462Zm224.429-130.001q28.14 0 47.874-19.702 19.734-19.701 19.734-47.842t-19.701-47.875q-19.702-19.734-47.843-19.734-28.14 0-47.874 19.702t-19.734 47.842q0 28.141 19.701 47.875 19.702 19.734 47.843 19.734ZM361.615-615.152h236.77v-78.509q0-49.068-34.501-83.665-34.502-34.596-83.789-34.596t-83.883 34.552q-34.597 34.551-34.597 83.91v78.308ZM243.231-164.038v-395.154V-164.038Z"/></svg>