<svg xmlns="http://www.w3.org/2000/svg" height="24" viewBox="0 -960 960 960" width="24"><path d="M176.347-148.078q-28.257 0-48.263-20.006-20.006-20.006-20.006-48.263v-79.731q0-14.125 9.942-24.081 9.943-9.957 24.289-9.957h675.575q14.124 0 24.081 9.957 9.957 9.956 9.957 24.081v79.731q0 28.257-20.006 48.263-20.006 20.006-48.263 20.006H176.347Zm-12.309-126.078v57.809q0 5.385 3.462 8.847 3.462 3.462 8.847 3.462h607.306q5.385 0 8.847-3.462 3.462-3.462 3.462-8.847v-57.809H164.038Zm316.366-165.961q-34.827 0-54.654 20-19.827 20-70.026 20t-69.288-20q-19.089-20-54.315-20-28.851 0-46.043 15.097-17.193 15.096-48.539 21.75-11.346 3.153-20.403-4.922-9.058-8.074-9.058-20.045 0-11.725 8.263-20.486 8.263-8.762 19.583-13.969 20.09-7.611 39.303-20.498 19.212-12.887 57.197-12.887 50.077 0 69.302 20 19.226 20 54.044 20t54.591-20q19.774-20 70.088-20 50.315 0 69.952 20t54.656 20q35.019 0 53.346-20 18.327-20 68.596-20 37.077 0 56.858 12.948 19.781 12.949 40.33 20.363 11.209 5.121 19.472 14.088 8.263 8.966 8.263 20.706t-8.75 19.798q-8.75 8.057-19.903 4.904-30.731-6.654-47.02-21.75-16.288-15.097-45.031-15.097-35.334 0-55.661 20-20.327 20-70.5 20t-69.999-20q-19.827-20-54.654-20ZM480-811.922q68.368 0 134.861 11.144 66.493 11.143 119.123 36.057 52.63 24.914 85.284 65.471 32.654 40.558 32.654 99.711 0 13.769-9.846 23.615-9.846 9.846-23.423 9.846H141.539q-13.769 0-23.615-9.846-9.846-9.846-9.846-23.615 0-59.153 32.654-99.711 32.654-40.557 85.284-65.471t119.123-36.057Q411.632-811.922 480-811.922Zm0 55.96q-132.886 0-212.828 34.097-79.942 34.096-99.441 99.827h624.538q-19.499-65.731-99.441-99.827Q612.886-755.962 480-755.962Zm0 481.806Zm0-347.882Z"/></svg>