<svg xmlns="http://www.w3.org/2000/svg" height="24" viewBox="0 -960 960 960" width="24"><path d="M262.578-320.846q49.538 0 96.538 11.269 47 11.27 93.308 35.347v-388.385q-41.346-27.462-90.873-41.597-49.527-14.134-99.168-14.134-35.446 0-66.4 5.653-30.954 5.654-63.482 18.54-4.616 1.538-6.539 4.423-1.924 2.885-1.924 6.347v373.421q0 5.385 3.847 7.885 3.846 2.5 8.462.577 27.346-9.692 58.847-14.519 31.502-4.827 67.384-4.827Zm245.806 46.616q46.347-24.077 92.999-35.347 46.651-11.269 95.976-11.269 35.718 0 67.333 4.827 31.615 4.827 58.961 14.519 4.616 1.923 8.462-.577 3.847-2.5 3.847-7.885v-373.461q0-3.461-1.924-6.154-1.923-2.692-6.539-4.616-32.5-12.038-63.463-18.096-30.964-6.057-66.459-6.057-49.693 0-98.77 14.134-49.077 14.135-90.423 41.663v388.319Zm-28.24 68.306q-9.721 0-18.314-2.277-8.592-2.277-16.022-6.8-42.423-24.5-88.539-37.193-46.115-12.692-94.846-12.692-34.96 0-68.672 7.558-33.712 7.557-65.603 22.074-21.454 9.483-40.762-3.4-19.308-12.883-19.308-36.502v-421.381q0-13.231 7.058-24.328 7.058-11.096 19.596-16.288 39.54-18.461 81.9-27.807 42.361-9.346 85.791-9.346 57.936 0 113.199 16.115T480-711.229q49.115-30.847 104.378-46.962 55.263-16.115 113.199-16.115 43.43 0 85.791 9.346t81.9 27.807q12.538 5.192 19.596 16.288 7.058 11.097 7.058 24.328v421.381q0 23.619-20.077 36.117-20.077 12.498-42.301 3.016-31.507-14.133-64.55-21.498-33.043-7.365-67.417-7.365-48.731 0-94.846 12.692-46.116 12.693-88.347 37.193-7.654 4.538-16.086 6.807-8.432 2.27-18.154 2.27ZM288.231-496.693Zm268.653-107.962q0-5.96 3.948-11.959t9.744-8.693q30.077-13.039 62.539-19.596 32.462-6.558 66.941-6.558 19.311 0 37.361 1.861 18.05 1.861 36.698 5.947 6.668 1.351 11.622 7.335 4.955 5.983 4.955 13.792 0 12.19-7.942 18.281-7.943 6.091-20.481 3.25-14.884-3.082-30.384-4.14-15.5-1.058-31.885-1.058-29.801 0-58.381 5.577-28.581 5.577-55.004 15.423-12.846 4.847-21.288-.76-8.443-5.607-8.443-18.702Zm0 218.551q0-6.05 3.948-12.241t9.744-8.885q29.5-13.039 62.635-19.808T700-433.807q19.115 0 37.461 1.904 18.346 1.903 37.092 6.275 6.525 1.551 11.332 7.7 4.807 6.148 4.807 13.574 0 12.431-8.096 18.546t-20.327 3.192q-14.884-2.904-30.384-4.413-15.5-1.51-31.885-1.51-29.587 0-58.14 5.712-28.553 5.711-54.784 16.25-13.038 5.538-21.615-.211-8.577-5.749-8.577-19.316Zm0-108.936q0-5.96 3.948-11.959t9.744-8.693q30.077-13.038 62.539-19.596t66.941-6.558q19.311 0 37.361 1.861 18.05 1.862 36.698 5.947 6.668 1.352 11.622 7.335 4.955 5.983 4.955 13.792 0 12.191-7.942 18.281-7.943 6.091-20.481 3.25-14.884-3.082-30.384-4.14-15.5-1.057-31.885-1.057-29.801 0-58.381 5.577-28.581 5.577-55.004 15.423-12.846 4.846-21.288-.761-8.443-5.606-8.443-18.702Z"/></svg>