<svg xmlns="http://www.w3.org/2000/svg" height="24" viewBox="0 -960 960 960" width="24"><path d="m178.002-772.729 67.229 135.152h118.385l-67.269-135.152h78.981l67.48 135.152h118.385l-67.269-135.152h78.981l67.48 135.152h118.384l-67.268-135.152h92.137q28.452 0 48.368 19.915 19.916 19.916 19.916 48.277v449.074q0 28.361-19.916 48.277-19.916 19.915-48.269 19.915H176.263q-28.353 0-48.269-19.915-19.916-19.916-19.916-48.272v-449.049q0-29.761 20.42-48.992 20.419-19.23 49.504-19.23Zm-13.964 191.112v326.078q0 5.385 3.462 8.846 3.462 3.462 8.847 3.462h607.306q5.385 0 8.847-3.462 3.462-3.461 3.462-8.846v-326.078H164.038Zm0 0V-243.231-581.617Z"/></svg>