<svg xmlns="http://www.w3.org/2000/svg" height="24" viewBox="0 -960 960 960" width="24"><path d="M160.385-132.116q-28.5 0-48.384-19.885-19.885-19.884-19.885-48.384v-590.148q0-5.735 4.991-8.042 4.991-2.308 9.663 2.307l28.192 28.192q5.115 5.308 12.038 5.058t11.986-5.34l41.976-42.141q5.197-5.115 12.038-5.365t12.038 4.865l42.924 42.923q5.115 5.308 12.038 5.308t12.038-5.308l42.924-42.923q5.197-5.115 12.038-4.865t12.038 5.365l41.976 42.141q5.063 5.09 11.986 5.34 6.923.25 12.038-5.058l42.924-42.923q5.197-5.115 12.038-5.115t12.038 5.115l42.924 42.923q5.115 5.308 12.038 5.058t11.986-5.34l41.976-42.141q5.197-5.115 12.038-5.365t12.038 4.865l42.924 42.923q5.115 5.308 12.038 5.308t12.038-5.308l42.924-42.923q5.197-5.115 12.038-4.865t12.038 5.365l41.976 42.141q5.063 5.09 11.986 5.34 6.923.25 12.038-5.058l28.384-28.192q4.424-4.615 9.539-2.306 5.115 2.309 5.115 8.044v590.145q0 28.5-19.974 48.384-19.975 19.885-48.295 19.885H160.385Zm0-55.96h291.731v-264.04h-304.04v251.731q0 5.385 3.462 8.847 3.462 3.462 8.847 3.462Zm347.691 0h291.731q5.193 0 8.751-3.462t3.558-8.847v-91.731h-304.04v104.04Zm0-160h304.04v-104.04h-304.04v104.04Zm-360-160h664.04v-147.887h-664.04v147.887Z"/></svg>