<svg xmlns="http://www.w3.org/2000/svg" height="24" viewBox="0 -960 960 960" width="24"><path d="M479.231-108.078q-76.462 0-144.145-29.216-67.683-29.215-118.13-79.759-50.447-50.543-79.662-118.322-29.216-67.779-29.216-144.633 0-77.838 29.982-145.571 29.983-67.732 81.654-118.076 51.671-50.344 121.094-79.305 69.423-28.962 147.765-28.962 73.485 0 139.071 25.173t115.377 69.317q49.791 44.144 79.346 104.922 29.555 60.779 29.555 131.471 0 101.478-59.961 158.431Q732-305.655 637.606-305.655h-70.875q-18.385 0-29.578 11.732-11.193 11.733-11.193 28.258 0 19.075 15 40.562 15 21.488 15 47.911 0 33.461-19.499 51.287-19.5 17.827-57.23 17.827ZM480-480Zm-217.617 27.576q20.317 0 33.966-13.609 13.65-13.61 13.65-33.927t-13.609-33.966q-13.61-13.65-33.927-13.65t-33.966 13.609q-13.65 13.61-13.65 33.927t13.609 33.966q13.61 13.65 33.927 13.65Zm119.192-158.384q20.317 0 33.967-13.61 13.65-13.61 13.65-33.926 0-20.317-13.61-33.967-13.61-13.65-33.926-13.65-20.317 0-33.967 13.61-13.65 13.609-13.65 33.926t13.61 33.967q13.609 13.65 33.926 13.65Zm197.577 0q20.317 0 33.967-13.61 13.65-13.61 13.65-33.926 0-20.317-13.61-33.967-13.61-13.65-33.926-13.65-20.317 0-33.967 13.61-13.65 13.609-13.65 33.926t13.61 33.967q13.609 13.65 33.926 13.65Zm118.385 158.384q20.317 0 33.966-13.609 13.65-13.61 13.65-33.927t-13.609-33.966q-13.61-13.65-33.927-13.65t-33.966 13.609q-13.65 13.61-13.65 33.927t13.609 33.966q13.61 13.65 33.927 13.65ZM479.314-164.038q9.645 0 15.165-4.808Q500-173.654 500-182.038q0-14-14.596-31.866-14.596-17.865-14.596-54.288 0-42.269 28.381-67.846 28.381-25.577 70.071-25.577h68.317q70.616 0 114.5-40.828 43.885-40.827 43.885-118.634 0-119.462-92.02-197.173-92.019-77.712-215.239-77.712-135.165 0-229.915 91.827-94.75 91.826-94.75 224.135 0 131.077 92.443 223.519 92.442 92.443 222.833 92.443Z"/></svg>