<svg xmlns="http://www.w3.org/2000/svg" height="24" viewBox="0 -960 960 960" width="24"><path d="M548.942-456.385q-39.558 0-66.826-27.269-27.269-27.269-27.269-66.922 0-39.654 27.392-66.672 27.392-27.019 66.964-27.019 39.155 0 66.34 27.209 27.186 27.208 27.186 66.518 0 39.309-26.987 66.732-26.987 27.423-66.8 27.423ZM289.385-332.539q-28.161 0-48.215-20.054-20.054-20.054-20.054-48.215v-299.037q0-28.161 20.054-48.215 20.054-20.054 48.215-20.054h519.613q28.161 0 48.215 20.054 20.054 20.054 20.054 48.215v299.037q0 28.161-20.054 48.215-20.054 20.054-48.215 20.054H289.385Zm57.576-55.96h404.462q0-29.423 20.528-50.057 20.529-20.635 49.356-20.635v-182.271q-29.115 0-49.5-20.682-20.384-20.683-20.384-50.01H346.961q0 29.423-20.529 50.058-20.528 20.634-49.356 20.634v182.271q29.116 0 49.5 20.683 20.385 20.682 20.385 50.009Zm384.807 193.536H151.002q-28.161 0-48.215-20.054-20.054-20.054-20.054-48.215v-359.382q0-11.414 8.225-19.649 8.225-8.235 19.769-8.235 11.544 0 19.755 8.235 8.211 8.235 8.211 19.649v359.382q0 4.616 3.847 8.462 3.846 3.846 8.462 3.846h580.766q11.413 0 19.648 8.24 8.236 8.239 8.236 19.658 0 11.64-8.236 19.851-8.235 8.212-19.648 8.212ZM289.385-388.499h-12.309v-323.655h12.309q-5 0-8.654 3.655-3.655 3.654-3.655 8.654v299.037q0 5.001 3.655 8.655 3.654 3.654 8.654 3.654Z"/></svg>