<svg xmlns="http://www.w3.org/2000/svg" height="24" viewBox="0 -960 960 960" width="24"><path d="M215.448-147.271q-28.346 0-48.262-19.915-19.915-19.916-19.915-48.262v-529.104q0-28.346 19.915-48.262 19.916-19.915 48.262-19.915h529.104q28.346 0 48.262 19.915 19.915 19.916 19.915 48.262v529.104q0 28.346-19.915 48.262-19.916 19.915-48.262 19.915H215.448Zm.091-55.96h126.269V-388.27h-15.192q-14.51 0-24.659-10.149t-10.149-24.658v-333.692h-76.269q-5.385 0-8.846 3.462-3.462 3.461-3.462 8.846v528.922q0 5.385 3.462 8.846 3.461 3.462 8.846 3.462Zm402.845 0h126.077q5.385 0 8.846-3.462 3.462-3.461 3.462-8.846v-528.922q0-5.385-3.462-8.846-3.461-3.462-8.846-3.462h-76.077v333.692q0 14.509-10.204 24.658-10.204 10.149-24.796 10.149h-15v185.039Zm-232.923 0h189.27V-388.27h-15.192q-14.51 0-24.659-10.149t-10.149-24.658v-333.692h-89.27v333.692q0 14.509-10.204 24.658-10.204 10.149-24.796 10.149h-15v185.039Z"/></svg>