<svg xmlns="http://www.w3.org/2000/svg" height="24" viewBox="0 -960 960 960" width="24"><path d="M452.424-136.154v-292.718q-14.154-8.629-22.23-21.706-8.077-13.076-8.077-29.252 0-23.815 17.122-41.03 17.123-17.216 40.807-17.216t40.857 17.108q17.173 17.107 17.173 40.77 0 16.236-7.976 29.37-7.976 13.135-21.716 21.012v293.662q0 11.653-8.226 19.864-8.226 8.212-19.658 8.212-11.654 0-19.865-8.212-8.211-8.211-8.211-19.864Zm-212.5-89.77q-8.808 8.808-20.865 8.019-12.058-.788-20.25-9.903-45.41-50.577-71.051-114.654Q102.117-406.539 102.117-480q0-78.25 29.796-147.273 29.796-69.022 80.82-120.09 51.024-51.069 119.987-80.891 68.962-29.822 147.296-29.822 78.348 0 147.316 29.836 68.969 29.835 119.997 80.927 51.029 51.091 80.888 120.042T858.076-480q0 73.077-25.693 137.346-25.692 64.269-71.192 114.846-8.192 9.115-19.942 10.211t-20.557-7.711q-8.5-8.5-7.769-20.654.731-12.153 8.923-21.461 37.68-43.002 58.975-97.12Q802.115-418.661 802.115-480q0-134.339-93.881-228.227-93.882-93.888-228.212-93.888-134.33 0-228.137 93.888Q158.077-614.339 158.077-480q0 61.565 21.096 115.571t59.289 96.699q8.192 9.307 9.231 21.153 1.038 11.846-7.769 20.653Zm113-113q-8.808 8.808-20.673 8.519-11.865-.288-19.442-9.519-23.796-28.576-37.244-64.005-13.448-35.429-13.448-76.071 0-90.737 63.628-154.406 63.629-63.67 154.307-63.67t154.351 63.67Q698.076-570.737 698.076-480q0 40.077-13.5 75.846-13.5 35.769-37.385 64.23-7.509 9.187-19.408 9.555-11.899.368-20.707-8.439-8.499-8.5-8.307-19.769.192-11.269 7.577-20.999 16.5-20.77 26.135-46.263 9.634-25.493 9.634-54.161 0-67.341-47.38-114.728t-114.711-47.387q-67.332 0-114.639 47.402-47.308 47.403-47.308 114.702 0 28.819 9.539 54.242 9.538 25.423 26.231 46.193 7.192 9.73 7.384 20.941.192 11.212-8.307 19.711Z"/></svg>