<svg xmlns="http://www.w3.org/2000/svg" height="24" viewBox="0 -960 960 960" width="24"><path d="M480-174.847q-36.858 0-57.679 19.596-20.821 19.597-73.094 19.597-52.272 0-73.173-19.597-20.9-19.596-57.669-19.596-30.154 0-48.039 12.712-17.885 12.711-45.178 20.711-11.146 3.231-19.926-4.197-8.78-7.427-8.78-19.3 0-12.257 8.308-20.995 8.307-8.737 19.922-14.122 18.119-8.115 37.012-19.442 18.894-11.327 56.681-11.327 50.576 0 71.538 19.596 20.961 19.596 59.269 19.596t59.27-19.596q20.961-19.596 71.538-19.596t71.923 19.596q21.346 19.596 59.654 19.596 38.308 0 58.885-19.596 20.577-19.596 71.076-19.596 37.943 0 56.779 11.327 18.837 11.327 37.183 19.442 11.423 5.385 19.73 14.229 8.308 8.845 8.308 20.95 0 11.721-8.865 19.194-8.866 7.472-19.675 4.241-27.459-8-45.344-20.711-17.885-12.712-48.039-12.712-36.769 0-57.285 19.596-20.515 19.597-72.788 19.597-52.273 0-73.478-19.597-21.206-19.596-58.064-19.596Zm-.065-178.384q-37.127 0-57.512 19.596-20.385 19.596-73.231 19.596-52.846 0-73.562-19.596t-57.245-19.596q-30.154 0-48.039 12.711-17.885 12.712-45.178 20.712-11.146 3.23-19.926-4.197-8.78-7.428-8.78-19.301 0-12.257 8.308-20.994 8.307-8.738 19.922-14.122 18.119-8.116 37.012-19.443 18.894-11.327 56.681-11.327 50.576 0 71.596 19.597 21.019 19.596 59.211 19.596 38.308 0 59.27-19.596 20.961-19.597 71.538-19.597t71.538 19.597q20.962 19.596 59.27 19.596 38.308 0 59.269-19.596 20.962-19.597 71.461-19.597 37.943 0 56.779 11.327 18.837 11.327 37.183 19.443 11.423 5.384 19.73 14.229 8.308 8.844 8.308 20.95 0 11.721-8.865 19.193-8.866 7.472-19.675 4.242-27.459-8-45.344-20.712-17.885-12.711-48.039-12.711-36.769 0-56.981 19.596-20.211 19.596-72.969 19.596-52.266 0-73.553-19.596-21.288-19.596-58.177-19.596ZM299.347-509.423l129.154-129.154-53.193-53.193q-25.846-25.654-52.426-38.937-26.58-13.284-62.69-18.063-14.961-2.039-25.768-13.152-10.808-11.113-10.808-26.058 0-15.52 11.154-25.75 11.153-10.231 26.153-8.616 50.891 4.895 87.496 21.066 36.605 16.17 72.617 52.217l239.617 239.64q-11.077 7.884-22.519 12.845-11.442 4.962-26.705 4.962-30.506 0-53.588-20-23.083-20-77.841-20-54.758 0-77.841 20-23.082 20-53.588 20-15.263 0-26.705-4.962-11.442-4.961-22.519-12.845Zm360.037-311.076q37.663 0 63.774 26.427 26.11 26.428 26.11 63.288 0 37.592-26.11 63.822-26.111 26.231-63.774 26.231t-63.773-26.158Q569.5-693.047 569.5-730.685q0-37.045 26.111-63.43 26.11-26.384 63.773-26.384Z"/></svg>