<svg xmlns="http://www.w3.org/2000/svg" height="24" viewBox="0 -960 960 960" width="24"><path d="M480.092-108.078q-77.152 0-145.066-29.325-67.914-29.324-118.152-79.595-50.238-50.27-79.517-118.055-29.279-67.785-29.279-144.855 0-77.152 29.325-145.066 29.324-67.914 79.595-118.152 50.27-50.238 118.055-79.517 67.785-29.279 144.855-29.279 77.152 0 145.066 29.325 67.914 29.324 118.152 79.595 50.238 50.27 79.517 118.055 29.279 67.785 29.279 144.855 0 77.152-29.325 145.066-29.324 67.914-79.595 118.152-50.27 50.238-118.055 79.517-67.785 29.279-144.855 29.279Zm-39.284-57.153v-78q-32.5 0-55.443-22.942-22.942-22.942-22.942-55.336v-39.265L172.038-551.192q-3 17.942-5.5 35.692t-2.5 35.5q0 119.79 78.498 209.78 78.498 89.989 198.272 104.989Zm271.961-101.192q20-21.692 35.596-46.789 15.597-25.096 26.097-52.31 10.5-27.215 16-55.914t5.5-58.488q0-97.598-53.654-177.606-53.654-80.009-143.923-116.009v16.77q0 32.692-23.207 55.942-23.206 23.25-55.962 23.25h-78.408v78.317q0 17.068-11.519 28.589-11.518 11.522-28.545 11.522h-79.129V-480h236.719q17.051 0 28.551 11.528 11.5 11.527 11.5 28.568v118.289h40q25.463 0 46.029 15.223 20.566 15.223 28.355 39.969Z"/></svg>