<svg xmlns="http://www.w3.org/2000/svg" height="24" viewBox="0 -960 960 960" width="24"><path d="M176.263-108.078q-28.353 0-48.269-19.916-19.916-19.916-19.916-48.26v-449.822q0-25 15.173-44.789 15.174-19.788 38.212-29.057l425.998-173.269q9.898-3.846 19.429.5 9.532 4.346 13.378 14.129t-.25 19.192q-4.096 9.409-13.827 13.255l-324.425 131.77h501.887q28.437 0 48.353 19.916t19.916 48.265v449.905q0 28.349-19.916 48.265t-48.269 19.916H176.263Zm.084-55.96h607.306q4.616 0 8.462-3.847 3.847-3.846 3.847-8.462v-274.5H164.038v274.5q0 4.616 3.847 8.462 3.846 3.847 8.462 3.847Zm142.191-53.924q37.663 0 63.774-26.111 26.11-26.111 26.11-63.773 0-37.663-26.11-63.774-26.111-26.111-63.774-26.111t-63.773 26.111q-26.111 26.111-26.111 63.774 0 37.662 26.111 63.773 26.11 26.111 63.773 26.111Zm-154.5-288.845h485.155v-48.231q0-11.433 8.211-19.658 8.212-8.226 19.769-8.226 11.558 0 19.769 8.226 8.211 8.225 8.211 19.658v48.231h90.809v-119.269q0-4.616-3.847-8.462-3.846-3.847-8.462-3.847H176.347q-4.616 0-8.462 3.847-3.847 3.846-3.847 8.462v119.269Zm0 342.769v-286.809V-164.038Z"/></svg>