<svg xmlns="http://www.w3.org/2000/svg" height="24" viewBox="0 -960 960 960" width="24"><path d="M554.5-91.385q-10.346 5.77-21.346 2.02-11-3.75-16.769-14.597l-63.846-127.692Q446.77-242 450.52-253t14.596-16.769q10.345-5.769 21.537-1.827 11.193 3.942 16.962 14.788l63.846 127.309q5.769 10.345 1.827 21.345-3.942 11-14.788 16.769Zm240.384 0q-10.345 5.77-21.345 2.02-11-3.75-16.769-14.597l-63.846-127.692Q687.154-242 690.904-253q3.75-11 14.596-16.769 10.346-5.769 21.538-1.827t16.961 14.788l63.847 127.309q5.769 10.345 1.827 21.345-3.943 11-14.789 16.769Zm-480.384 0q-10.346 5.77-21.538 2.02-11.192-3.75-16.961-14.597l-63.847-127.692Q206.385-242 210.327-253q3.943-11 14.789-16.769 10.345-5.769 21.345-1.827 11 3.942 16.769 14.788l63.846 127.309q5.77 10.345 2.02 21.345-3.75 11-14.596 16.769ZM300-332.116q-86.346 0-147.115-60.769Q92.116-453.654 92.116-540q0-79.5 53.308-138.403 53.307-58.904 133.038-68.443 30.846-56.423 84.173-88.826Q415.962-868.076 480-868.076q87.269 0 151.057 57.307 63.789 57.308 75.865 142.923 71.001 5.231 116.077 53.558Q868.076-565.961 868.076-500q0 69.654-49.211 118.769Q769.654-332.116 700-332.116H300Zm0-55.96h400q46.654 0 79.385-32.635T812.116-500q0-46.654-32.731-79.385T700-612.116h-47.884V-640q0-71.346-50.385-121.731Q551.346-812.116 480-812.116q-51.885 0-94.443 28.135-42.558 28.134-63.711 75.327l-6.5 16.538H298q-62.346 2-106.135 45.885Q148.076-602.346 148.076-540q0 63.039 44.443 107.481Q236.961-388.076 300-388.076ZM480-600Z"/></svg>