<svg xmlns="http://www.w3.org/2000/svg" height="24" viewBox="0 -960 960 960" width="24"><path d="M294.039-593.769v-242.693q0-11.442 8.225-19.663t19.865-8.221q11.448 0 19.659 8.221 8.211 8.221 8.211 19.663v242.693H407v-242.693q0-11.442 8.225-19.663t19.865-8.221q11.448 0 19.659 8.221 8.212 8.221 8.212 19.663v242.693q0 52.385-32.693 90.557-32.692 38.173-80.269 47.904v330.77q0 11.634-8.225 19.855-8.224 8.22-19.672 8.22-11.64 0-19.852-8.22-8.211-8.221-8.211-19.855v-330.77q-47.577-9.731-80.673-47.904-33.096-38.172-33.096-90.557v-242.693q0-11.442 8.225-19.663t19.865-8.221q11.448 0 19.659 8.221 8.211 8.221 8.211 19.663v242.693h57.809Zm377.345 180.538h-71.713q-14.402 0-24.344-9.991-9.942-9.99-9.942-24.24v-230.115q0-73.77 41.999-130.269 42-56.5 85.076-56.5 16.346 0 25.615 11.923 9.269 11.923 9.269 29.154v698.731q0 11.634-8.224 19.855-8.225 8.22-19.673 8.22-11.64 0-19.851-8.22-8.212-8.221-8.212-19.855v-288.693Z"/></svg>