<svg xmlns="http://www.w3.org/2000/svg" height="24" viewBox="0 -960 960 960" width="24"><path d="M297.424-483.576q17.115-33.423 36.635-64.866 19.519-31.442 42.365-61.712l-64.653-13.077q-3.078-.576-5.962.289-2.885.865-5.193 3.173l-93.462 93.462q-1.154 1.154-.769 2.693.384 1.538 1.923 2.308l89.116 37.73Zm474.114-293.885q-83.27 4.5-158.308 39.942-75.038 35.443-137.384 97.596-43.154 43.154-76.808 91.962t-56.692 100.462l113.307 113.307q51.462-23.038 100.712-56.692 49.25-33.654 92.404-76.808 62.153-62.154 97.596-136.942 35.442-74.788 39.942-158.058 0-3.038-1.019-5.769-1.019-2.731-3.135-4.846-2.115-2.115-4.846-3.135-2.731-1.019-5.769-1.019ZM550.577-542.346q-20-19.808-20-47.923 0-28.115 20-47.922 19.807-19.808 47.98-19.808t48.173 19.808q19.807 19.807 19.807 47.922t-19.807 47.923q-20 20-48.173 20-28.173 0-47.98-20Zm-58.54 253.653 37.731 89.231q.769 1.539 2.308 1.731 1.538.192 2.692-.962l93.462-93.385q2.308-2.307 3.173-5.192.866-2.885.289-5.962l-13.077-64.346q-30.269 22.846-61.712 42.212-31.443 19.365-64.866 36.673Zm348.499-506.382q5.385 98.346-35.596 194.806-40.98 96.461-122.672 178.153-3.846 3.846-7.192 7.096-3.347 3.25-7.385 7.096l18.961 93.346q3.615 16.961-1.5 33.23-5.115 16.27-17.461 28.616L547.884-132.925q-12.847 12.846-30.712 9.538-17.865-3.308-24.596-20.269l-54.769-129.307-156.883-157.075-128.807-54.961q-16.961-6.731-20.134-24.346-3.173-17.616 9.481-30.462l119.999-119.807q12.154-12.346 28.423-17.269 16.269-4.923 33.23-1.308l93.654 18.962q3.846-3.847 6.75-7.097 2.904-3.25 6.75-7.096 81.692-81.692 178.306-122.864 96.615-41.173 194.961-35.789 7.23.615 13.711 3.788t11.596 8.289q5.116 5.115 8.096 11.404 2.981 6.288 3.596 13.519ZM184.079-314.731q28.922-28.922 69.652-28.634 40.731.289 69.653 28.711 28.423 28.923 28.519 69.749.096 40.827-28.634 69.557-39.576 39.577-94.23 48.788-54.653 9.212-109.537 15.404 6.385-55.077 15.693-109.537 9.307-54.461 48.884-94.038Zm40.037 40.423q-18.192 18.692-25.135 43.5-6.942 24.807-10.557 51 26.192-3.616 51-10.443 24.807-6.827 43.5-25.019 12.807-12.308 13.327-29.923.519-17.615-12.097-30.423-12.807-12.808-30.269-12.154-17.461.654-29.769 13.462Z"/></svg>