<svg xmlns="http://www.w3.org/2000/svg" height="24" viewBox="0 -960 960 960" width="24"><path d="M170.001-400.385v-439.422q0-28.161 20.054-48.215 20.054-20.054 48.214-20.054h203.462q28.16 0 48.214 20.054t20.054 48.215v99.873q0 30.807 18.635 55.909 18.635 25.103 49.289 33.564l105 29q47.287 13.12 77.181 52.126Q789.999-530.33 789.999-480v79.615q0 28.341-20.054 48.305t-48.214 19.964H238.269q-28.16 0-48.214-19.964t-20.054-48.305Zm68.268 12.309h483.462q5.385 0 8.846-3.462 3.462-3.462 3.462-8.847v-79.685q0-31.185-18.827-54.943-18.827-23.757-49.096-32.718l-105-30q-33.193-9.731-57.864-31.537-24.672-21.805-37.598-53.54h-87.577q-7.154 0-12.019-4.865-4.865-4.866-4.865-12.019 0-6.885 4.865-11.885t12.019-5h78.77q-2-11.615-2.25-22.558-.25-10.942-.558-23.673h-75.962q-7.154 0-12.019-4.865-4.865-4.866-4.865-12.019 0-6.885 4.865-11.885t12.019-5h75.962v-43.23q0-5.193-3.462-8.751-3.461-3.558-8.846-3.558H238.269q-5.385 0-8.846 3.558-3.462 3.558-3.462 8.751v439.422q0 5.385 3.462 8.847 3.461 3.462 8.846 3.462Zm-12.308 0ZM200.05-52.116q-45.011 0-76.473-31.468-31.46-31.468-31.46-76.423 0-44.954 31.467-76.512 31.468-31.557 76.423-31.557 44.954 0 76.512 31.507 31.557 31.508 31.557 76.519 0 45.011-31.507 76.473-31.508 31.46-76.519 31.46Zm-.057-55.96q21.661 0 36.892-15.128 15.231-15.128 15.231-36.789t-15.167-36.892q-15.167-15.231-36.885-15.231-21.718 0-36.853 15.167-15.135 15.167-15.135 36.885 0 21.718 15.128 36.853 15.128 15.135 36.789 15.135Zm560.057 55.96q-45.011 0-76.473-31.468-31.461-31.468-31.461-76.423 0-44.954 31.468-76.512 31.468-31.557 76.423-31.557 44.954 0 76.512 31.507 31.557 31.508 31.557 76.519 0 45.011-31.508 76.473-31.507 31.46-76.518 31.46Zm-.057-55.96q21.661 0 36.892-15.128 15.231-15.128 15.231-36.789t-15.167-36.892q-15.167-15.231-36.885-15.231-21.718 0-36.853 15.167-15.135 15.167-15.135 36.885 0 21.718 15.128 36.853 15.128 15.135 36.789 15.135ZM480.05-52.116q-45.011 0-76.473-31.468-31.461-31.468-31.461-76.423 0-44.954 31.468-76.512 31.468-31.557 76.423-31.557 44.954 0 76.512 31.507 31.557 31.508 31.557 76.519 0 45.011-31.508 76.473-31.507 31.46-76.518 31.46Zm-.057-55.96q21.661 0 36.892-15.128 15.231-15.128 15.231-36.789t-15.167-36.892q-15.167-15.231-36.885-15.231-21.718 0-36.853 15.167-15.135 15.167-15.135 36.885 0 21.718 15.128 36.853 15.128 15.135 36.789 15.135ZM200-160Zm280 0Zm280 0Z"/></svg>