<svg xmlns="http://www.w3.org/2000/svg" height="24" viewBox="0 -960 960 960" width="24"><path d="m180.616-485.731 200.576-288.613q5.923-7.731 13.558-9.885 7.634-2.154 15.365-.038 7.731 2.307 12.846 8.673 5.115 6.365 5.115 15.903v293.537q0 14.346-9.942 24.192t-24.288 9.846H208.539q-10.346 0-17.923-5.173-7.577-5.173-12-13.096-4.615-7.731-4.269-17.327.346-9.596 6.269-18.019Zm69.113-2.345h122.387v-175.311L249.729-488.076Zm311.233 55.96q-24.077 0-29.365-17.308-5.288-17.307-.365-35.538 8.346-36.846 14.615-82.538 6.269-45.693 6.269-92.5 0-48.731-5.269-96.461-5.269-47.731-14.923-88.961-2-8.923.692-16 2.693-7.077 8.308-11.308 5.615-5.115 13.442-6.288t15.558 3.327q45.577 27.423 86.153 68.327 40.577 40.903 74.769 92.365 37.077 56.153 61.192 117.134 24.115 60.98 31.384 127.826 2 15.346-8.442 26.635-10.442 11.288-25.596 11.288H560.962Zm28.383-55.96H765.27q-15.846-89.386-61.481-165.732-45.635-76.347-105.367-130.002 4.231 31.232 6.943 62.828 2.711 31.597 2.711 60.982 0 46.231-5.327 89.866-5.327 43.634-13.404 82.058Zm-217.229 0Zm217.229 0ZM360-192.038q-26.885 0-51.115-11.27-24.231-11.269-45.693-27.307-5.308-4.231-10.942-5.596-5.635-1.366-11.365-.981-5.923.385-11.75 2.596-5.827 2.212-10.25 6.635-6.462 6.346-13.596 10.942-7.135 4.596-15.096 8.442-24.154-17.423-43.961-40.596-19.808-23.173-32.385-50.75-8-16.576 1.596-32.365 9.596-15.788 29.173-15.788h670.768q17.654 0 27.961 14.577 10.308 14.577 4.116 31.153-12.27 26.385-33.039 51.615-20.769 25.231-44.615 42.154-7.385-3.846-14.904-8.634-7.519-4.789-13.788-10.75-4.423-4.423-10.25-6.635-5.827-2.211-11.557-2.596-5.923-.385-11.558.923-5.634 1.308-10.75 5.538-21.654 16.039-45.885 27.366-24.23 11.327-51.115 11.327-27.769 0-52.75-11.866-24.981-11.865-46.827-28.596-4.616-3.538-9.654-5.346-5.038-1.808-10.769-1.808t-10.769 1.808q-5.038 1.808-9.462 5.346-22.038 16.731-47.019 28.596-24.981 11.866-52.75 11.866ZM480-86.001q-30.154 17.385-60.308 25.635T360-52.116q-29.538 0-59.692-8.25T240-86.001q-30.154 17.385-60.308 25.635T120-52.116q-11.654 0-19.769-8.115Q92.116-68.346 92.116-80q0-11.654 9.173-18T120-108.076q28.077 0 53.865-9.904 25.789-9.904 50.558-22.712 3.731-1.807 7.539-2.865 3.807-1.058 8.038-1.058t8.038 1.058q3.808 1.058 7.731 2.865 24.577 12.808 50.366 22.404 25.788 9.596 53.865 9.596t53.865-9.596q25.789-9.596 50.558-22.404 3.731-1.807 7.539-2.865 3.807-1.058 8.038-1.058t8.038 1.058q3.808 1.058 7.731 2.865 24.577 12.808 50.366 22.404 25.788 9.596 53.865 9.596t53.865-9.596q25.789-9.596 50.558-22.404 2.231-1.115 15.577-3.923 2.115 0 15.769 3.923 24.577 12.808 50.366 22.712 25.788 9.904 53.865 9.904 11.654 0 19.865 8.211 8.211 8.211 8.211 19.865 0 11.654-9.269 18T840-52.117q-29.538 0-59.692-8.25T720-86.001q-30.154 17.385-60.308 25.635T600-52.116q-29.538 0-59.692-8.25T480-86.001Z"/></svg>