<svg xmlns="http://www.w3.org/2000/svg" height="24" viewBox="0 -960 960 960" width="24"><path d="M247.039-142.117q-21.114 0-39.629-14.02-18.514-14.02-24.447-34.21-25-86.522-40.519-146.78-15.52-60.259-24.426-103.682-8.907-43.422-12.404-75.768-3.497-32.346-3.497-63.423 0-82.734 57.615-140.405Q217.347-778.076 300-778.076h211.198q27.162-36 65.886-58t82.98-22q15.53 0 26.771 11.146 11.241 11.145 11.241 26.847 0 3.877-1.212 7.7-1.212 3.824-2.25 7.267-4.692 11.769-8.594 25.841-3.902 14.072-7.483 36.006l105.197 105.193h40.611q14.432 0 24.081 9.65 9.65 9.649 9.65 24.081v182.421q0 11.122-6.216 19.796-6.216 8.675-17.169 12.627l-85.372 28.035-51.282 170.657q-6.903 22.288-24.851 35.49-17.947 13.202-40.802 13.202h-61.998q-28.438 0-48.353-19.916-19.916-19.915-19.916-48.353v-11.731H378.076v11.731q0 28.438-20.006 48.353-20.006 19.916-48.263 19.916h-62.768Zm1.346-55.96h61.422q5.192 0 8.75-3.462t3.558-8.847v-67.691h235.962v67.691q0 5.385 3.462 8.847 3.462 3.462 8.847 3.462h61.998q4.231 0 7.5-2.308 3.27-2.308 4.424-6.539l59.501-197.418 98.306-33.043v-144.73h-41.307L622.115-720.558q0-18.788 3-39.115t8.577-38.865q-29.346 7.807-53.192 28.827-23.846 21.019-35.13 47.596H300q-58.797 0-100.36 41.592-41.563 41.593-41.563 100.431 0 40.823 20.385 138.034 20.384 97.211 57.23 234.365 1.154 4.231 4.808 6.924 3.654 2.692 7.885 2.692ZM640-526.731q13.577 0 23.519-9.846 9.942-9.846 9.942-23.423 0-13.577-9.942-23.519-9.942-9.942-23.519-9.942-13.577 0-23.423 9.942-9.846 9.942-9.846 23.519 0 13.577 9.846 23.423 9.846 9.846 23.423 9.846Zm-149.999-85.385q11.653 0 19.865-8.115 8.211-8.115 8.211-19.769 0-11.654-8.211-19.865-8.212-8.211-19.865-8.211H349.999q-11.653 0-19.768 8.211-8.116 8.211-8.116 19.865 0 11.654 8.116 19.769 8.115 8.115 19.768 8.115h140.002ZM480-498.5Z"/></svg>