<svg xmlns="http://www.w3.org/2000/svg" height="24" viewBox="0 -960 960 960" width="24"><path d="M261.809-296.887q-16.648-9.149-25.997-24.986-9.349-15.837-9.349-35.3v-169.545l-78.23-43.051q-9.038-5.17-13.403-13.049-4.366-7.879-4.366-16.815 0-8.935 4.366-16.805 4.365-7.869 13.403-13.177l299.403-162.649q7.672-4.542 15.93-6.254 8.259-1.711 16.478-1.711 8.22 0 16.434 1.807 8.214 1.808 16.054 6.128l336.85 182.871q8.231 4.808 13 12.724 4.769 7.917 4.769 17.083v231.153q0 11.634-8.239 19.855-8.24 8.221-19.658 8.221-11.64 0-19.852-8.221-8.211-8.221-8.211-19.855v-219.922l-77.654 41.571v169.654q0 19.45-9.349 35.287t-25.997 24.986L512.948-196.242q-7.756 4.624-16.079 6.585-8.323 1.962-16.882 1.962-8.559 0-16.869-1.962-8.31-1.961-16.066-6.585L261.809-296.887Zm213.575-158.229q2.693 1.539 4.808 1.539 2.116 0 4.808-1.539l265.385-144.576L485-743.384q-2.692-1.347-4.808-1.347-2.115 0-4.808 1.347L210.115-599.692l265.269 144.576ZM475-244.925q2.692 1.539 5 1.539t5-1.539L671.807-345.68q3.077-1.923 4.424-4.423 1.346-2.5 1.346-6.347v-140.398l-164.346 90.231q-7.924 4.423-16.337 6.385-8.413 1.961-17.019 1.961-8.606 0-16.894-1.961-8.288-1.962-16.019-6.385l-164.539-90.231v140.398q0 3.078 1.346 5.962 1.347 2.885 4.424 4.808L475-244.925Zm5.5-208.267Zm-.5 87.613Zm0 0Z"/></svg>