<svg xmlns="http://www.w3.org/2000/svg" height="24" viewBox="0 -960 960 960" width="24"><path d="M204.038-147.271q-35.862 0-51.026-31.826-15.164-31.826 6.835-59.402l225.001-272.962v-245.308h-48.501q-11.859 0-19.718-7.918-7.858-7.918-7.858-19.865 0-11.755 7.858-19.966 7.859-8.211 19.718-8.211h288.114q11.859 0 19.717 8.149 7.859 8.15 7.859 20.248 0 11.865-7.859 19.714-7.858 7.849-19.717 7.849H575.96v245.308l224.193 272.962q21.999 27.576 7.064 59.402-14.935 31.826-50.448 31.826H204.038Zm0-55.96h552.731L520-491.829v-264.94h-79.192V-492l-236.77 288.769ZM480.5-480Z"/></svg>