<svg xmlns="http://www.w3.org/2000/svg" height="24" viewBox="0 -960 960 960" width="24"><path d="M552.922-124.309q-16.456 16.423-39.958 16.423t-39.925-16.423L125.921-472.241q-8.269-8.051-13.056-18.646-4.787-10.594-4.787-22.305v-282.77q0-22.872 16.544-39.416 16.544-16.544 39.416-16.544h282.77q11.503 0 21.919 4.276 10.417 4.275 18.263 11.984l347.932 348.048q16.807 16.807 17 40.46.192 23.653-16.231 40.076L552.922-124.309Zm-39.21-39.729 282.134-282.77-348.775-349.154H164.038v282.86l349.674 349.064Zm-250.93-485.963q19.852 0 33.785-13.853 13.932-13.853 13.932-33.644 0-19.79-13.863-33.723-13.863-13.932-33.668-13.932-19.949 0-33.785 13.853-13.836 13.853-13.836 33.644 0 19.79 13.791 33.723 13.791 13.932 33.644 13.932Zm-98.744-145.961Z"/></svg>