<svg xmlns="http://www.w3.org/2000/svg" height="24" viewBox="0 -960 960 960" width="24"><path d="M289.417-105.77q-28.14 0-47.874-19.702t-19.734-47.842q0-28.141 19.701-47.875 19.702-19.734 47.843-19.734 28.14 0 47.874 19.702 19.734 19.701 19.734 47.842t-19.701 47.875q-19.702 19.734-47.843 19.734Zm380.423 0q-28.141 0-47.875-19.702t-19.734-47.842q0-28.141 19.702-47.875 19.701-19.734 47.842-19.734t47.875 19.702q19.734 19.701 19.734 47.842t-19.702 47.875Q697.98-105.77 669.84-105.77ZM242.23-729.193l101.385 212.309h268.654q3.462 0 6.154-1.731 2.693-1.731 4.616-4.808l107.307-195q2.308-4.231.385-7.501-1.923-3.269-6.539-3.269H242.23Zm-27.153-55.96h544.575q24.346 0 36.519 20.415 12.173 20.416.981 41.508L672.23-496.732q-9.039 16.808-25.101 26.308-16.063 9.5-34.514 9.5h-287L278.5-374.693q-3.077 4.615-.193 10 2.885 5.386 8.655 5.386H709.5q11.432 0 19.658 8.225 8.226 8.226 8.226 19.658 0 11.654-8.226 19.865-8.226 8.212-19.658 8.212H289.317q-38.703 0-58.375-33.072-19.672-33.071-1.479-66.274l57.077-101.631-143.924-303.254H96.154q-11.653 0-19.864-8.211-8.212-8.211-8.212-19.769 0-11.557 8.212-19.769 8.21-8.211 19.864-8.211h60.491q9.894 0 17.874 5.269 7.981 5.27 12.404 14.116l28.154 59Zm128.538 268.269h275.962-275.962Z"/></svg>