<svg xmlns="http://www.w3.org/2000/svg" height="24" viewBox="0 -960 960 960" width="24"><path d="M457.847-113.04q-62.808-11.731-123.654-40.423-60.845-28.692-108.941-79.903-48.096-51.211-77.75-126.711-29.654-75.499-29.654-180.23v-7.538q0-11.346 7.596-18.942t18.942-7.596h6.769q45.269 0 100.596 16.865 55.327 16.866 97.558 44.405 7.115-69.731 36.269-145.077 29.153-75.346 71.768-134.846 9.154-12.769 22.904-12.769t22.904 12.769q42.922 59.5 71.826 135.231 28.904 75.73 36.211 145.461 41.077-26.077 95.481-43.481 54.404-17.404 101.903-18.558l7.462-.385q11.077-.384 19.23 7.769 8.154 8.154 7.77 19.231l-.385 8.731q-2.693 93.114-27.596 164.152-24.904 71.037-67.73 122.787-42.826 51.75-101.364 85.038-58.538 33.289-128.115 51.597-12.385 3.154-30.097 3.789-17.711.634-29.903-1.366Zm29.154-52.691q-10.693-162.384-97.981-246.923-87.289-84.538-213.981-104.538h-.096.096q10.808 166.884 101.096 250.769 90.289 83.885 210.866 100.692 1.807 1-.097.5-1.903-.5.097-.5ZM403.308-478.46q20.961 17.769 41.827 43.289Q466-409.652 480-386.306q14.231-23.231 35.231-48.808 21-25.577 41.961-43.346-.423-57.616-20.365-121.501Q516.885-663.845 480-725.307l.154.5-.154-.5q-36.577 61.962-56.519 125.5-19.943 63.539-20.173 121.347Zm107.23 153.653q11.5 31.692 19.615 66.192 8.115 34.5 12.808 78 41.615-13.923 82.75-39.27 41.135-25.346 74.789-65.423t56.692-97.096q23.038-57.019 28.269-134.788v.096-.096q-94.423 13.5-167.481 64.731-73.058 51.231-107.442 127.654Z"/></svg>