<svg xmlns="http://www.w3.org/2000/svg" height="24" viewBox="0 -960 960 960" width="24"><path d="M480.025-108.078q-77.085 0-144.977-29.367-67.891-29.366-118.123-79.653-50.232-50.287-79.539-118.081-29.308-67.793-29.308-144.796 0-77.085 29.367-144.977 29.366-67.891 79.653-118.123 50.287-50.232 118.081-79.539 67.793-29.308 144.796-29.308 77.085 0 144.977 29.367 67.891 29.366 118.123 79.653 50.232 50.287 79.539 118.081 29.308 67.793 29.308 144.796 0 77.085-29.367 144.977-29.366 67.891-79.653 118.123-50.287 50.232-118.081 79.539-67.793 29.308-144.796 29.308ZM669.846-565.23l61.693-20.51 17.538-61.529q-31.192-49.423-77.676-84.712-46.483-35.289-103.632-52.327l-59.385 41.769v63.809l161.462 113.5Zm-379.643 0 162.221-113.5v-63.784l-60.289-41.794q-56.981 17-103.116 52.308t-77.327 84.64l17.539 61.572 60.972 20.558Zm-47.502 293.884 55.387-4.769 34.567-59.385-57.962-175.462-64.58-22.308-46.075 33.898q0 67.27 17.212 121.494 17.211 54.224 61.451 106.532ZM480-164.038q25.192 0 50.962-4.193 25.769-4.192 52.077-12.577l31.077-66.923-30.433-51.732H376.5l-29.847 51.732 31.078 66.923q25.153 8.385 51.115 12.577 25.962 4.193 51.154 4.193Zm-93.039-191.385h187.655l56.731-168.423L480-629.654 329.884-523.668l57.077 168.245Zm330.362 84.077q44.216-52.308 61.427-106.532 17.212-54.224 17.212-121.494l-45.305-31.898-65.35 19.539-57.962 176.14 34.616 59.476 55.362 4.769Z"/></svg>