<svg xmlns="http://www.w3.org/2000/svg" height="24" viewBox="0 -960 960 960" width="24"><path d="M201.384-785.153h557.424q11.413 0 19.648 8.239 8.236 8.239 8.236 19.658 0 11.64-8.236 19.852-8.235 8.211-19.648 8.211H201.384q-11.634 0-19.855-8.225t-8.221-19.769q0-11.544 8.221-19.755 8.221-8.211 19.855-8.211Zm8.501 609.499q-14.25 0-24.24-9.991-9.991-9.99-9.991-24.24v-203.346h-14.808q-16.264 0-26.651-12.521-10.387-12.52-6.887-28.825l40-185.269q2.426-11.677 12.009-19.3 9.582-7.623 21.914-7.623h557.501q12.294 0 21.914 7.623 9.62 7.623 12.046 19.3l40 185.269q3.5 16.305-6.887 28.825-10.387 12.521-26.651 12.521h-14.808v209.5q0 11.635-8.24 19.856-8.239 8.221-19.658 8.221-11.64 0-19.851-8.221-8.212-8.221-8.212-19.856v-209.5H547.576v203.346q0 14.25-10.005 24.24-10.004 9.991-24.033 9.991H209.885Zm21.73-55.961h260.001v-181.616H231.615v181.616Zm-44.501-237.577h585.964-585.964Zm0 0h585.964l-31.347-141.616h-523.27l-31.347 141.616Z"/></svg>