<svg xmlns="http://www.w3.org/2000/svg" height="24" viewBox="0 -960 960 960" width="24"><path d="M479.987-753.653q-11.641 0-19.756-8.125t-8.115-19.759v-87.693q0-11.634 8.129-19.855 8.128-8.221 19.768-8.221 11.641 0 19.852 8.221t8.211 19.855v87.693q0 11.634-8.225 19.759-8.224 8.125-19.864 8.125Zm193.474 80.192q-8.115-7.808-7.769-19.211.346-11.404 8.154-19.711l61-62.385q8.526-8.808 19.82-8.808 11.295 0 20.186 8.891 8.416 8.109 8.262 19.378-.154 11.269-8.346 19.461l-62.385 62.385q-8.192 8.192-19.461 8.192-11.269 0-19.461-8.192Zm108.076 221.345q-11.634 0-19.759-8.129-8.125-8.128-8.125-19.768 0-11.641 8.125-19.852t19.759-8.211h87.693q11.634 0 19.855 8.225 8.221 8.224 8.221 19.864 0 11.641-8.221 19.756t-19.855 8.115h-87.693Zm-301.55 389.23q-11.641 0-19.756-8.125t-8.115-19.759v-87.308q0-11.635 8.129-19.856 8.128-8.22 19.768-8.22 11.641 0 19.852 8.22 8.211 8.221 8.211 19.856v87.308q0 11.634-8.225 19.76-8.224 8.124-19.864 8.124ZM248.001-673.461l-62.769-61.385q-8.808-8.182-8.808-19.802t8.808-20.12q8.5-7.808 19.871-7.808 11.372 0 19.051 7.808l62.77 62.769q7.807 7.68 8.057 19.205.25 11.525-7.48 19.333-8.672 8.115-19.682 8.115-11.01 0-19.818-8.115Zm487.23 488.537-61.385-62.385q-7.808-8.615-8-20.019-.192-11.403 7.538-19.211 7.731-7.807 19.211-7.807 11.481 0 19.788 8.192l62.885 61.385q8.423 7.807 8.019 19.268-.404 11.462-8.636 20.269-8.19 8.808-19.966 8.962-11.775.153-19.454-8.654ZM90.77-452.116q-11.634 0-19.76-8.129-8.124-8.128-8.124-19.768 0-11.641 8.125-19.852t19.759-8.211h87.693q11.634 0 19.855 8.225 8.221 8.224 8.221 19.864 0 11.641-8.221 19.756t-19.855 8.115H90.77Zm94.846 267.192q-8.115-8.5-8.307-19.807-.192-11.308 7.923-19.423l62-62q8.192-8.192 19.404-8.192 11.211 0 19.518 8.108 8.808 8.891 8.808 20.045 0 11.153-8.808 19.961l-61 61q-8.808 8.808-20.333 8.808-11.525 0-19.205-8.5Zm294.475-77.193q-90.821 0-154.398-63.486-63.576-63.486-63.576-154.306 0-90.821 63.486-154.494t154.306-63.673q90.821 0 154.494 63.583 63.673 63.582 63.673 154.402 0 90.821-63.583 154.398-63.582 63.576-154.402 63.576Zm-.091-55.96q67.308 0 114.712-47.308Q642.115-412.692 642.115-480q0-67.308-47.403-114.712Q547.308-642.115 480-642.115q-67.308 0-114.615 47.403Q318.077-547.308 318.077-480q0 67.308 47.308 114.615Q412.692-318.077 480-318.077ZM480-480Z"/></svg>