<svg xmlns="http://www.w3.org/2000/svg" height="24" viewBox="0 -960 960 960" width="24"><path d="M745.01-663.539q14.489 0 24.432-9.824 9.942-9.823 9.942-24.346 0-14.522-9.949-24.31-9.95-9.788-24.657-9.788-14.504 0-24.083 10.009-9.58 10.01-9.58 24.289 0 14.278 9.703 24.124 9.702 9.846 24.192 9.846Zm-158.174 0q14.279 0 24.221-9.913 9.942-9.914 9.942-24.192 0-14.279-10.01-24.221-10.009-9.942-24.288-9.942t-24.125 10.009q-9.846 10.01-9.846 24.289 0 14.278 9.914 24.124 9.913 9.846 24.192 9.846Zm79.071 69.308q-24.87 0-47.735 8.404t-36.441 28.519q-6.693 9.539.431 19.25 7.124 9.712 20.453 9.712h126.692q12.944 0 20.068-9.712 7.124-9.711.432-19.25-13.577-19.923-36.304-28.423-22.726-8.5-47.596-8.5ZM293.734-108.078q-89.31 0-151.675-62.364-62.365-62.363-62.365-151.673v-185.269q0-28.161 20.054-48.215 20.054-20.053 48.215-20.053h291.344q28.161 0 48.215 20.053 20.054 20.054 20.054 48.215v185.269q0 89.31-62.37 151.673-62.371 62.364-151.472 62.364Zm-.003-55.96q65.5 0 111.693-46.151 46.192-46.151 46.192-111.862v-185.333q0-5.192-3.462-8.75-3.461-3.558-8.847-3.558H147.963q-5.385 0-8.847 3.558-3.462 3.558-3.462 8.75v185.333q0 65.711 46.17 111.862 46.169 46.151 111.907 46.151Zm372.23-220.81q-26.704 0-53.025-6.038-26.321-6.038-48.552-19.846l.769-66.576q21.958 17.5 47.736 27t53.072 9.5q65.738 0 111.907-46.15 46.17-46.151 46.17-111.863v-185.332q0-5.193-3.558-8.751t-8.751-3.558H519.885q-5.385 0-8.847 3.558-3.462 3.558-3.462 8.751v150.924h-55.96v-150.924q0-28.161 20.054-48.215 20.054-20.054 48.215-20.054h291.844q28.161 0 48.215 20.054 20.054 20.054 20.054 48.215v185.268q0 89.311-62.428 151.674-62.427 62.363-151.609 62.363Zm-450.643-2.229q14.408 0 24.083-9.703 9.676-9.703 9.676-24.192t-9.772-24.432q-9.772-9.942-24.219-9.942-14.585 0-24.431 9.977t-9.846 24.725q0 14.323 9.838 23.945 9.839 9.622 24.671 9.622Zm157.577 0q14.183 0 24.125-9.703t9.942-24.192q0-14.489-9.818-24.432-9.818-9.942-24.332-9.942-14.734 0-24.427 9.949-9.692 9.949-9.692 24.657 0 14.503 10.01 24.083 10.01 9.58 24.192 9.58Zm-78.942 135.5q24.971 0 47.586-8.654t36.807-28.346q6.5-9.654-.419-19.673-6.92-10.019-20.119-10.019H230.27q-13.199 0-20.118 10.019-6.92 10.019-.228 19.673 13.808 19.885 36.433 28.442 22.625 8.558 47.596 8.558Zm-.222-90.538Zm366.884-276.77Z"/></svg>