<svg xmlns="http://www.w3.org/2000/svg" height="24" viewBox="0 -960 960 960" width="24"><path d="M187.271-187.271q-28.642 0-48.455-19.915-19.814-19.916-19.814-48.277v-449.074q0-28.361 19.814-48.277 19.813-19.915 48.455-19.915h449.002q28.356 0 48.272 19.915 19.916 19.916 19.916 48.353v183.885l107.422-107.422q8.038-8.038 18.673-3.952 10.634 4.087 10.634 15.606v272.768q0 11.407-10.634 15.51-10.635 4.102-18.673-3.936L704.461-439.424v183.885q0 28.437-19.916 48.353-19.916 19.915-48.272 19.915H187.271Zm0-55.96h448.921q5.193 0 8.751-3.462 3.558-3.461 3.558-8.846v-448.922q0-5.385-3.558-8.846-3.558-3.462-8.751-3.462H187.271q-5.385 0-8.847 3.462-3.462 3.461-3.462 8.846v448.922q0 5.385 3.462 8.846 3.462 3.462 8.847 3.462Zm-12.309 0v-473.538 473.538Z"/></svg>