<svg xmlns="http://www.w3.org/2000/svg" height="24" viewBox="0 -960 960 960" width="24"><path d="M553.307-138.346q1.924.77 3.462.77 1.539 0 3.462-.77l232.885-72.038q-1.77-14.923-10.426-21.943-8.656-7.019-23.228-7.019H566.8q-26.992 0-45.299-2-18.308-2-36.808-8.769l-63.078-20.539q-11.228-3.681-16.248-14.244-5.021-10.563-1.255-21.956 3.573-11.202 13.917-16.481 10.343-5.279 22.009-1.433l54.731 19.039q18.209 5.769 40.239 7.942 22.031 2.173 55.789 2.481h10.28q0-14.846-6.692-25.967-6.692-11.12-17.616-14.995l-229.653-83.615q-1.154-.385-2.116-.577-.962-.193-2.116-.193h-74.808v201.307l285.231 81Zm-14.315 54.73-270.916-77.77q-6.038 23.731-25.925 38.519-19.887 14.789-42.344 14.789h-54.575q-28.161 0-48.215-20.054-20.054-20.054-20.054-48.215v-231.997q0-28.161 20.054-48.215 20.054-20.054 48.215-20.054h197.303q5.822 0 11.816 1.231 5.995 1.231 11.638 2.851l230.241 84.764q26.115 9.577 43.461 32.577t17.346 59.884h102.425q41.057 0 66.758 25.884 25.702 25.885 25.702 70.884 0 13.769-6.173 23.345-6.173 9.577-20.673 14.346l-246.73 76.923q-9.31 2.923-19.571 3.116-10.262.192-19.783-2.808Zm-406.068-92.731q0 5.385 3.461 8.847 3.462 3.462 8.847 3.462h54.575q5.385 0 8.847-2.885 3.462-2.885 3.462-9.424v-244.306h-66.884q-5.385 0-8.847 3.462-3.461 3.462-3.461 8.847v231.997Zm497.701-304.192q-13.158 0-25.107-4.673t-22.21-14.212L475.231-603.846q-27.577-26.885-46.75-59.573-19.173-32.687-19.173-71.196 0-48.878 33.808-83.092 33.807-34.215 81.934-34.215 31.799 0 58.778 15.77 26.979 15.769 46.787 40.423 19.808-24.654 46.729-40.423 26.921-15.77 58.732-15.77 48.398 0 82.122 34.215 33.724 34.214 33.724 83.092 0 38.492-19.13 71.166-19.13 32.673-46.485 59.603L678.115-499.424q-10.427 9.539-22.379 14.212-11.953 4.673-25.111 4.673Zm8.541-58.537 105.511-103.269q19.669-19.27 35.477-41.943 15.808-22.673 15.808-50.327 0-25.192-17.349-43.27-17.348-18.077-42.383-18.077-19.808 0-35.673 11.135-15.866 11.135-28.558 26.366l-16.23 19.422q-9.839 12.154-25.092 12.154-15.254 0-25.216-12.154l-16.23-19.422q-12.692-15.231-28.558-26.366-15.865-11.135-35.673-11.135-25.035 0-42.383 18.077-17.349 18.078-17.349 43.27 0 27.654 15.808 50.327t35.654 41.943l105.511 103.269q3.462 3.461 8.462 3.461 5.001 0 8.463-3.461Zm-8.551-169.117Z"/></svg>