<svg xmlns="http://www.w3.org/2000/svg" height="24" viewBox="0 -960 960 960" width="24"><path d="M479.761-108.886q-76.992 0-144.771-29.023-67.779-29.023-118.322-79.567-50.543-50.543-79.566-118.322-29.024-67.779-29.024-144.865 0-77.683 29.024-145.18 29.023-67.497 79.566-118.121 50.543-50.625 118.322-79.695 67.779-29.07 145.094-29.07 31.108 0 62.224 5.134 31.115 5.135 59.307 14.443v75.575q0 32.667-23.262 55.93-23.263 23.262-55.93 23.262H440v78.318Q440-583 428.5-571.5T400-560h-78.385v79.192h236.719q17.051 0 28.551 11.528t11.5 28.568v118.289h39.237q26.485 0 46.803 15.555 20.318 15.555 28.259 39.637 38.585-42.615 60.931-96.866 22.347-54.251 22.347-116.682 0-11.029-.616-21.24-.615-10.212-2.615-21.212h56.504q1.879 11 2.283 21.212.404 10.211.404 21.057 0 77.385-29.071 145.164-29.07 67.779-79.694 118.322-50.625 50.544-118.139 79.567-67.514 29.023-145.257 29.023ZM440-166.038v-78q-32.5 0-55.442-22.943-22.943-22.942-22.943-55.341v-39.272L171.206-552q-2.975 18-5.071 35.578-2.097 17.578-2.097 35.655 0 121.267 79.064 210.498Q322.165-181.038 440-166.038Zm271.307-433.154q-14.571 0-24.15-9.58-9.58-9.58-9.58-24.151V-753q0-14.571 9.58-24.15 9.579-9.58 24.15-9.58h6.27v-39.284q0-30.87 21.25-52.274 21.25-21.403 52.115-21.403 30.865 0 52.115 21.403 21.25 21.404 21.25 52.274v39.284h6.27q14.571 0 24.15 9.58 9.58 9.579 9.58 24.15v120.077q0 14.571-9.58 24.151-9.579 9.58-24.15 9.58h-159.27Zm40.039-187.538h79.192v-39.192q0-16.657-11.5-27.925t-28.057-11.268q-16.558 0-28.096 11.268-11.539 11.268-11.539 27.925v39.192Z"/></svg>