<svg xmlns="http://www.w3.org/2000/svg" height="24" viewBox="0 -960 960 960" width="24"><path d="M246.154-187.271q-57.615 0-97.845-40.23-40.231-40.23-40.231-97.845v-309.5q0-57.423 40.231-97.653 40.23-40.23 97.845-40.23h467.885q57.422 0 97.652 40.23 40.231 40.23 40.231 97.653v309.5q0 57.615-40.231 97.845-40.23 40.23-97.652 40.23H246.154Zm-1.616-435.459h471.424q22.769 0 43.115 6.942 20.346 6.943 36.885 20.251v-39.309q0-33.808-24.058-57.866-24.058-24.057-57.865-24.057H246.154q-34 0-58.058 24.057-24.058 24.058-24.058 57.866v39.616q16.539-13.115 36.885-20.308 20.346-7.192 43.615-7.192Zm-77.115 118.807 440.654 110.269q7.731 2 16 .192 8.269-1.807 14.808-6.923l146.731-123.923q-9.846-18.693-28.289-30.577-18.442-11.885-41.365-11.885H244.538q-29 0-50.154 17.635-21.154 17.635-26.961 45.212Z"/></svg>