<svg xmlns="http://www.w3.org/2000/svg" height="24" viewBox="0 -960 960 960" width="24"><path d="M421.116-126.656q-18.193 0-33.466-11.097-15.273-11.096-20.956-29.71l-31.192-106.268q-48.847-32.654-78.943-86.904-30.096-54.25-30.096-119.365t30.096-119.365q30.096-54.25 78.968-86.833l31.167-106.531q5.754-18.455 20.991-29.535 15.238-11.08 33.431-11.08h117.768q18.193 0 33.431 11.08 15.237 11.08 20.991 29.535l31.167 106.531q48.872 32.583 78.968 86.833 30.096 54.25 30.096 119.365t-30.096 119.365q-30.096 54.25-78.943 86.904l-31.192 106.268q-5.683 18.614-20.956 29.71-15.272 11.097-33.466 11.097H421.116Zm58.851-155.767q81.98 0 139.795-57.782 57.815-57.781 57.815-139.762 0-81.98-57.782-139.795-57.781-57.815-139.762-57.815-81.98 0-139.795 57.782-57.815 57.781-57.815 139.762 0 81.98 57.782 139.795 57.781 57.815 139.762 57.815Zm-75.929-439.576q20.385-5.769 38.736-8.961 18.35-3.192 37.197-3.192 18.846 0 37.197 3.192 18.351 3.192 38.794 8.961l-16.816-55.385H420.808l-16.77 55.385Zm16.77 539.383h118.384l16.77-55.385q-20.385 5.769-38.754 8.461-18.37 2.692-37.236 2.692-18.866 0-37.235-2.692-18.37-2.692-38.699-8.461l16.77 55.385Zm-16.77-594.768h151.924H404.038Zm16.77 594.768h-16.77H555.962 420.808Z"/></svg>