<svg xmlns="http://www.w3.org/2000/svg" height="24" viewBox="0 -960 960 960" width="24"><path d="M631.846-489.001 489.771-631.077q-5.308-5.115-7.77-11.147-2.461-6.032-2.461-12.904 0-6.871 2.461-12.852 2.462-5.981 7.77-11.289l142.075-142.075q5.115-5.115 11.147-7.673t12.904-2.558q6.872 0 12.852 2.558 5.981 2.558 11.289 7.673l142.075 142.075q5.116 5.308 7.673 11.34 2.558 6.032 2.558 12.904t-2.558 12.852q-2.557 5.981-7.673 11.096L680.038-489.001q-5.308 5.307-11.34 7.769-6.032 2.461-12.904 2.461-6.871 0-12.852-2.461-5.981-2.462-11.096-7.769Zm-469.844-73.73V-763.96q0-14.057 9.991-24.048 9.99-9.99 24.24-9.99h201.228q14.058 0 24.048 9.99 9.99 9.991 9.99 24.048v201.229q0 14.25-9.99 24.24-9.99 9.99-24.048 9.99H196.233q-14.25 0-24.24-9.99-9.991-9.99-9.991-24.24Zm366.499 366.498v-202.036q0-14.058 9.99-24.048 9.99-9.99 24.24-9.99h202.036q14.058 0 24.048 9.99 9.99 9.99 9.99 24.048v202.036q0 14.25-9.99 24.24-9.99 9.991-24.048 9.991H562.731q-14.25 0-24.24-9.991-9.99-9.99-9.99-24.24Zm-366.499 0v-201.228q0-14.058 9.991-24.048 9.99-9.99 24.24-9.99h201.228q14.058 0 24.048 9.99 9.99 9.99 9.99 24.048v201.228q0 14.25-9.99 24.24-9.99 9.991-24.048 9.991H196.233q-14.25 0-24.24-9.991-9.991-9.99-9.991-24.24Zm55.96-388.228h157.577v-157.577H217.962v157.577Zm438.884 41.769L768.23-654.076 656.846-765.461 545.461-654.076l111.385 111.384Zm-72.385 324.73h158.384v-158.385H584.461v158.385Zm-366.499 0h157.577v-157.577H217.962v157.577Zm157.577-366.499Zm169.922-69.615ZM375.539-375.539Zm208.922-.808Z"/></svg>